<svg id="Group_218" data-name="Group 218" xmlns="http://www.w3.org/2000/svg" xmlns:xlink="http://www.w3.org/1999/xlink" width="1920" height="1080" viewBox="0 0 1920 1080">
  <defs>
    <clipPath id="clip-path">
      <rect id="Rectangle_204" data-name="Rectangle 204" width="1920" height="1080" fill="none"/>
    </clipPath>
    <linearGradient id="linear-gradient" x1="0.5" x2="0.5" y2="1" gradientUnits="objectBoundingBox">
      <stop offset="0" stop-color="#660091"/>
      <stop offset="1" stop-color="#29abe2"/>
    </linearGradient>
    <linearGradient id="linear-gradient-8" x1="-0.162" y1="0.666" x2="1.598" y2="0.336" gradientUnits="objectBoundingBox">
      <stop offset="0" stop-color="#29abe2"/>
      <stop offset="1" stop-color="#660091"/>
    </linearGradient>
    <linearGradient id="linear-gradient-9" x1="-0.31" y1="0.686" x2="1.555" y2="0.324" xlink:href="#linear-gradient-8"/>
    <linearGradient id="linear-gradient-10" x1="-0.109" y1="0.664" x2="1.44" y2="0.321" xlink:href="#linear-gradient-8"/>
    <linearGradient id="linear-gradient-11" x1="-0.01" y1="0.679" x2="1.208" y2="0.37" xlink:href="#linear-gradient-8"/>
    <linearGradient id="linear-gradient-17" x1="0.048" y1="0.67" x2="1.086" y2="0.405" xlink:href="#linear-gradient-8"/>
    <linearGradient id="linear-gradient-18" x1="0.017" y1="0.685" x2="1.066" y2="0.398" xlink:href="#linear-gradient-8"/>
    <linearGradient id="linear-gradient-25" x1="0.146" y1="0.5" x2="0.854" y2="0.5" xlink:href="#linear-gradient"/>
  </defs>
  <g id="Group_207" data-name="Group 207" transform="translate(-951.427 -3377)">
    <g id="Group_206" data-name="Group 206" transform="translate(951.427 3377)" clip-path="url(#clip-path)">
      <g id="Group_205" data-name="Group 205" transform="translate(-1422.578 -292.974)">
        <g id="Group_1" data-name="Group 1" transform="translate(1422.286 293.145)">
          <path id="Path_1" data-name="Path 1" d="M1819.547,3401.112c5.161,33.748,32.487,60.009,62,77.153,45.323,26.333,97.859,37.135,145.814,58.295s94.578,57.925,103.931,109.519c5.787,31.927-4.066,65.6-23.172,91.821-8.668,11.9-19.633,23.558-20.757,38.237-1.644,21.466,19.253,38.7,40.275,43.3s42.906.724,64.388,1.988c33.471,1.97,64.8,16.283,95.407,29.97s62.459,27.214,95.988,27.45,69.434-16.136,82.175-47.165c10.366-25.244,3.609-54.321-7.438-79.273s-26.284-48.219-33.663-74.492c-16.46-58.612,13.61-126.828,67.968-154.192,17.186-8.652,36.5-13.711,51.346-25.951,32.41-26.72,31.664-77.578,16.151-116.624q-.776-1.958-1.594-3.9H2393.119q4.264,5.065,8.856,9.846c22.259,23.042,52.038,44.679,53.988,76.664,2.414,39.615-38.179,65.747-65.65,94.378-38.369,39.989-54.6,105.474-24.771,152.186,10.628,16.643,26.127,29.819,36.2,46.807s13.233,40.943-.6,55.028c-12.642,12.869-34.2,11.9-50.531,4.248s-29.548-20.572-44.761-30.263A128.709,128.709,0,0,0,2252.4,3767c-21.667-2.627-46.927-1.016-61.349-17.405-21.084-23.962.051-59.979,5.956-91.351,6.225-33.075-6.426-66.953-23.666-95.854-41.284-69.21-111.025-120.833-189.251-140.087-22.059-5.43-44.976-8.479-65.564-18.085-12.868-6-24.928-15.312-32.732-26.969h-66.916A113.075,113.075,0,0,0,1819.547,3401.112Z" transform="translate(-1224.329 -3377.25)" fill="url(#linear-gradient)"/>
          <path id="Path_2" data-name="Path 2" d="M1949.448,3404.219c20.588,9.606,43.5,12.656,65.564,18.085,78.227,19.254,147.967,70.877,189.251,140.087,17.24,28.9,29.891,62.778,23.666,95.854-5.905,31.373-27.041,67.39-5.956,91.351,14.421,16.389,39.682,14.779,61.349,17.405a128.71,128.71,0,0,1,53.442,19.142c15.213,9.691,28.427,22.614,44.761,30.263s37.888,8.621,50.531-4.248c13.838-14.084,10.674-38.04.6-55.028s-25.567-30.163-36.2-46.807c-29.829-46.712-13.6-112.2,24.771-152.186,27.471-28.631,68.064-54.763,65.65-94.378-1.949-31.985-31.728-53.622-53.987-76.664q-4.6-4.766-8.856-9.846H2319.608c13.145,14.568,26.655,28.846,37.93,44.875,19.02,27.039,31.356,62.231,19.784,93.2-11.994,32.1-46.746,52.392-55.753,85.458-9.448,34.683,12.446,69.264,20.274,104.349,3.616,16.2-.128,38.743-16.594,40.807-4.018.5-8.086-.46-11.9-1.831-34.518-12.426-48.215-54.683-47.461-91.378s11.127-73.514,4.824-109.67c-7.512-43.081-38.345-79.38-75.3-102.736s-79.785-35.442-122.3-45.62c-17.354-4.155-36.133-9.162-51.971-17.454H1916.716C1924.52,3388.907,1936.58,3398.215,1949.448,3404.219Z" transform="translate(-1255.254 -3377.25)" fill="url(#linear-gradient)"/>
          <path id="Path_3" data-name="Path 3" d="M1060.026,3702.408c55,24.954,103.325,62.34,155.875,92.108,10.809,6.123,22.085,12.021,34.38,13.789,43.528,6.258,75.388-38.02,113.234-60.423,28.254-16.724,62.17-21.481,94.984-20.51,17.068.505,36.109,1.844,49.1-9.238,18.332-15.631,11.834-47.575-6.465-63.245s-43.566-19.58-67.372-23.248-49.128-8.475-66.412-25.257c-32.454-31.513-20.364-86.094-36.616-128.319-13-33.781-43.782-57.685-76.208-73.746-21.176-10.488-43.524-18.373-65.507-27.068H1035.063a165.054,165.054,0,0,0,60.287,40.422c50.425,19.184,114.688,16.974,146.594,60.5,33.1,45.152,14.4,121.261,60.9,152.425,18.288,12.257,41.9,13.205,61.774,22.667s35.662,36.225,21.257,52.877c-13.8,15.956-39.208,7.01-59.667,1.884a125.491,125.491,0,0,0-87.626,10.359c-10.28,5.362-20.033,12.252-31.35,14.77-24.227,5.391-47.622-10.291-67.511-25.144-17.921-13.384-35.885-26.8-52.228-42.075-12.982-12.132-25.022-25.5-39.862-35.266-28.212-18.571-62.4-21.834-96.627-18.315v64.624C988.051,3676.716,1025.993,3686.966,1060.026,3702.408Z" transform="translate(-951 -3377.25)" fill="url(#linear-gradient)"/>
          <path id="Path_4" data-name="Path 4" d="M1122.978,3603.7c14.3,6.827,28.8,13.788,40.672,24.28,5.149,4.55,10.454,10.044,17.317,10.338,12,.513,18.178-16.468,12.278-26.939s-18.273-15.192-29.809-18.552c-37.277-10.856-80.145-18.3-102.261-50.225-7.361-10.625-11.869-23.437-21.406-32.16-7.491-6.851-17.374-10.47-27.235-12.87-20.082-4.888-40.806-5.344-61.532-5.975v38.009c19.794,1.974,39.582,10.869,57.912,19.622Z" transform="translate(-951 -3413.238)" fill="url(#linear-gradient)"/>
          <path id="Path_5" data-name="Path 5" d="M1047.627,3630.666c14.84,9.769,26.88,23.134,39.862,35.266,16.344,15.273,34.307,28.691,52.228,42.075,19.889,14.853,43.284,30.534,67.511,25.144,11.317-2.518,21.07-9.408,31.35-14.77a125.491,125.491,0,0,1,87.626-10.359c20.459,5.126,45.865,14.072,59.667-1.884,14.405-16.652-1.38-43.417-21.257-52.877s-43.486-10.41-61.774-22.667c-46.5-31.164-27.8-107.272-60.9-152.425-31.905-43.523-96.169-41.313-146.594-60.5a165.054,165.054,0,0,1-60.287-40.422H951v42.6c38.407,9.537,83.676,2.8,112.906,29.389,11.393,10.363,18.588,24.589,29.382,35.573,26.215,26.679,68.016,29.642,100.094,48.869,43.372,26,64.08,84.4,46.776,131.933-2.87,7.883-7.232,16.022-14.911,19.393-12.9,5.662-26.844-4.7-36.89-14.578-37.725-37.082-72.709-78.353-118.6-104.653-35.6-20.4-80.449-29.847-118.757-18.557v65.135C985.223,3608.831,1019.415,3612.094,1047.627,3630.666Z" transform="translate(-951 -3377.25)" fill="url(#linear-gradient)"/>
          <path id="Path_6" data-name="Path 6" d="M1069.756,3585.335c45.891,26.3,80.875,67.571,118.6,104.653,10.046,9.875,23.993,20.24,36.89,14.578,7.679-3.371,12.041-11.51,14.911-19.393,17.3-47.529-3.4-105.937-46.776-131.933-32.078-19.226-73.88-22.189-100.094-48.868-10.794-10.985-17.989-25.211-29.382-35.573-29.23-26.587-74.5-19.853-112.906-29.389v35.763c20.727.63,41.45,1.087,61.532,5.975,9.861,2.4,19.744,6.02,27.235,12.87,9.536,8.724,14.045,21.535,21.406,32.16,22.116,31.924,64.985,39.369,102.261,50.225,11.536,3.36,23.91,8.082,29.809,18.553s-.274,27.451-12.278,26.938c-6.863-.293-12.168-5.788-17.317-10.338-11.874-10.492-26.375-17.452-40.672-24.28L1008.912,3532.8c-18.33-8.753-38.118-17.648-57.912-19.622v53.6C989.308,3555.488,1034.161,3564.936,1069.756,3585.335Z" transform="translate(-951 -3396.813)" fill="url(#linear-gradient)"/>
          <path id="Path_7" data-name="Path 7" d="M2367.147,3440.324q13.062,25.239,27.507,49.729c4.864,8.245,10.06,16.66,17.872,22.189s18.968,7.463,26.894,2.1c5.545-3.751,8.548-10.292,10.207-16.781a62.092,62.092,0,0,0-13.494-55.618c-17.356-19.533-45.9-26.624-62.172-47.073a66.76,66.76,0,0,1-9.891-17.619h-39.108C2343.094,3393.652,2355.584,3417.981,2367.147,3440.324Z" transform="translate(-1383.874 -3377.25)" fill="url(#linear-gradient)"/>
          <path id="Path_8" data-name="Path 8" d="M3574.879,3452.029c-6.3,34.013-.255,68.912,3.875,103.256s6.087,70.486-7.613,102.246c-15.681,36.354-49.5,61.589-70.065,95.417-14.508,23.862-21.984,51.261-33.83,76.552a241.244,241.244,0,0,1-42.465,62.628c-8.512,9.071-18.319,18.723-19.029,31.144-.813,14.219,11,26.262,23.837,32.425s27.257,8.452,40.067,14.665c28.745,13.941,45.609,48.817,38.692,80.02-4.592,20.715-16.6,46.692.192,59.655,11.213,8.656,28.613,2.852,37.361-8.291s11.227-25.8,13.885-39.713c10.609-55.534,34.869-116.365,85.169-139.125v-87.434c-20.2,4.378-39.443,10.427-52.949,24.795-32.431,34.5-13.8,97.789-47.259,131.3-2.952,2.956-6.508,5.689-10.666,6.064-8.23.743-14.391-8.071-15.323-16.286s1.4-16.51.732-24.751c-1.725-21.344-22.434-36.595-27.474-57.405-4.442-18.343,4.32-37.664,16.936-51.7s28.844-24.21,43.433-36.177a221.662,221.662,0,0,0,76.091-126.926c7.406-37.219,5.067-75.7,10.039-113.318a213.087,213.087,0,0,1,6.44-31.226V3377.25h-13.847C3600.725,3388.029,3580.829,3419.9,3574.879,3452.029Z" transform="translate(-1724.37 -3377.25)" fill="url(#linear-gradient-8)"/>
          <path id="Path_9" data-name="Path 9" d="M3667.634,3759.057a221.662,221.662,0,0,1-76.091,126.926c-14.588,11.967-30.817,22.144-43.433,36.177s-21.378,33.354-16.936,51.7c5.041,20.81,25.749,36.062,27.474,57.405.665,8.24-1.663,16.536-.732,24.75s7.092,17.029,15.323,16.286c4.158-.375,7.714-3.108,10.666-6.064,33.456-33.506,14.828-96.793,47.259-131.3,13.506-14.368,32.753-20.417,52.949-24.795V3614.513a213.1,213.1,0,0,0-6.44,31.226C3672.7,3683.361,3675.04,3721.838,3667.634,3759.057Z" transform="translate(-1763.529 -3451.921)" fill="url(#linear-gradient-9)"/>
          <path id="Path_10" data-name="Path 10" d="M3471.951,3482.165c6.037,44.282,22.171,89.811,8.621,132.4-10.437,32.8-36.858,57.762-53.448,87.92-19.323,35.124-24.656,75.92-33.57,115.009s-23.236,79.57-54.607,104.515c-9.455,7.519-20.45,13.633-27.249,23.621s-7.305,25.827,2.861,32.351c5.765,3.7,13.112,3.371,19.96,3.347,37.238-.127,77.549,15.85,93.507,49.512,9.277,19.57,9.138,42.081,9.546,63.736s1.9,44.458,13.715,62.606,37.42,29.086,55.9,17.811c14.629-8.924,19.534-27.339,27.372-42.582,15.707-30.543,46.3-51.018,79.208-61.511v-147.99c-50.3,22.76-74.56,83.591-85.169,139.125-2.658,13.918-5.138,28.569-13.885,39.713s-26.148,16.947-37.361,8.291c-16.791-12.962-4.783-38.939-.192-59.655,6.918-31.2-9.946-66.079-38.691-80.02-12.81-6.213-27.234-8.5-40.067-14.665s-24.65-18.205-23.837-32.425c.709-12.421,10.516-22.073,19.029-31.144a241.257,241.257,0,0,0,42.465-62.628c11.846-25.291,19.322-52.69,33.83-76.552,20.567-33.828,54.384-59.063,70.065-95.417,13.7-31.76,11.742-67.9,7.613-102.246s-10.174-69.243-3.875-103.256c5.95-32.125,25.846-64,56.229-74.779h-97.8C3474.062,3399.219,3466.827,3444.574,3471.951,3482.165Z" transform="translate(-1693.187 -3377.25)" fill="url(#linear-gradient-10)"/>
          <path id="Path_11" data-name="Path 11" d="M3359.416,3466.456c4.908,31.854,10.183,64.378,4.58,96.117-9.4,53.218-47.6,96.185-69.894,145.408-32.813,72.438-32.31,160.822-83.523,221.649-12.4,14.734-27.8,27.761-34.814,45.7s-.875,43.162,17.813,47.8c8.017,1.99,16.389-.215,24.62-.9,41.72-3.463,76.189,31.731,98.729,67.025,23.146,36.243,41.431,78.4,36.364,121.106-2.184,18.41-8.469,38.032-.355,54.7,12.881,26.457,50.592,25.749,79.1,18.5,38.708-9.835,77.909-24.473,117.426-18.7a140.813,140.813,0,0,1,22.158,5.222V4070.9c-32.907,10.494-63.5,30.969-79.208,61.511-7.838,15.243-12.743,33.658-27.372,42.582-18.484,11.275-44.089.338-55.9-17.811s-13.308-40.952-13.715-62.606-.269-44.166-9.545-63.736c-15.958-33.662-56.269-49.64-93.507-49.512-6.849.023-14.2.352-19.96-3.347-10.166-6.525-9.66-22.365-2.861-32.351s17.794-16.1,27.249-23.621c31.372-24.945,45.694-65.427,54.607-104.515s14.247-79.885,33.57-115.009c16.591-30.158,43.011-55.118,53.448-87.92,13.55-42.587-2.583-88.116-8.621-132.4-5.124-37.591,2.111-82.945,30.174-104.915h-99.946C3350.713,3405.7,3354.844,3436.779,3359.416,3466.456Z" transform="translate(-1651.036 -3377.25)" fill="url(#linear-gradient-11)"/>
          <path id="Path_12" data-name="Path 12" d="M2243.455,3440.324c36.955,23.356,67.788,59.655,75.3,102.736,6.3,36.156-4.069,72.976-4.824,109.67s12.943,78.952,47.461,91.378c3.811,1.371,7.878,2.335,11.9,1.831,16.466-2.064,20.209-24.6,16.594-40.807-7.829-35.085-29.722-69.666-20.274-104.349,9.007-33.065,43.759-53.356,55.753-85.458,11.572-30.97-.764-66.162-19.784-93.2-11.276-16.029-24.786-30.308-37.93-44.875h-84.158a66.753,66.753,0,0,0,9.891,17.619c16.268,20.449,44.816,27.539,62.172,47.073a62.092,62.092,0,0,1,13.494,55.618c-1.658,6.488-4.661,13.03-10.206,16.781-7.927,5.363-19.082,3.429-26.895-2.1s-13.009-13.944-17.872-22.189q-14.438-24.478-27.507-49.729c-11.563-22.342-24.053-46.672-42.185-63.074H2069.188c15.837,8.292,34.617,13.3,51.971,17.454C2163.669,3404.882,2206.5,3416.969,2243.455,3440.324Z" transform="translate(-1303.291 -3377.25)" fill="url(#linear-gradient)"/>
          <path id="Path_13" data-name="Path 13" d="M2434.194,4555.6c-18.795-92.586-123.506-145.664-217.895-142.894-52.547,1.542-104,15.853-156.5,18.728a362.655,362.655,0,0,1-173.411-33.819c-38.792-18.256-74.208-43.362-113.836-59.723s-86.294-23.127-124.59-3.851c-65.155,32.8-75.834,119.5-113.049,182.256-49.135,82.863-151.868,124.7-247.88,117.259s-184.693-57.861-255.083-123.611c-24.9-23.256-49.581-49.476-80.954-61.355v95.384c11.687,7.89,22.674,16.989,33.669,25.851,85.8,69.154,183.939,129.3,293.262,142.977s231.162-28.774,285.8-124.495c29-50.8,44.35-119.23,99.462-138.776,36.456-12.928,76.942,2.238,109.732,22.763s62.69,46.846,99.261,59.446c35.03,12.07,73.3,10.455,109.947,4.995,59-8.793,116.845-27.178,176.487-28.149s124.577,19.877,155.427,70.954c9.1,15.063,14.854,32.482,14.282,50.074-.9,27.561-16.711,52.045-26.439,77.847a166.338,166.338,0,0,0-10.151,46.878H2419.58C2415.953,4689.126,2447.44,4620.851,2434.194,4555.6Z" transform="translate(-951 -3674.68)" fill="url(#linear-gradient)"/>
          <path id="Path_14" data-name="Path 14" d="M2328.325,4685.839c.572-17.591-5.183-35.01-14.282-50.074-30.85-51.077-95.786-71.925-155.427-70.954s-117.489,19.356-176.487,28.149c-36.645,5.461-74.918,7.075-109.947-4.994-36.571-12.6-66.471-38.921-99.261-59.446s-73.276-35.691-109.732-22.763c-55.112,19.546-70.467,87.976-99.462,138.776-54.635,95.72-176.475,138.173-285.8,124.495s-207.466-73.823-293.262-142.976c-10.994-8.862-21.982-17.961-33.669-25.852v101.7a192.683,192.683,0,0,1,33.114,16.357c29.01,17.811,54.058,41.312,81.587,61.337a393.387,393.387,0,0,0,50.141,30.973h358.813c53.073-28.914,99.113-70.631,131.561-121.625,14.715-23.125,27.68-49.016,50.877-63.6,34.766-21.863,80.9-11,117.267,8.068s69.455,45.813,109.182,56.2c65.922,17.242,133.456-13.727,200-28.392,29.249-6.446,60.285-9.657,88.775-.413s53.742,33.458,56.533,63.292c3.088,33.017-19.488,59.507-41.1,86.47h103.99a166.337,166.337,0,0,1,10.151-46.879C2311.614,4737.885,2327.429,4713.4,2328.325,4685.839Z" transform="translate(-951 -3730.908)" fill="url(#linear-gradient)"/>
          <path id="Path_15" data-name="Path 15" d="M2469.714,4775.654c-2.79-29.834-28.043-54.049-56.532-63.292s-59.526-6.032-88.775.413c-66.542,14.666-134.076,45.634-200,28.393-39.728-10.392-72.81-37.136-109.182-56.205s-82.5-29.931-117.267-8.068c-23.2,14.589-36.162,40.479-50.877,63.6-32.447,50.995-78.488,92.712-131.561,121.625h145.339c14.349-32.177,19.311-70.292,45.965-92.93,30.2-25.652,76.136-20.211,112.766-5.1s70.437,38.447,109.427,45.481c63.136,11.39,128.08-22.01,191.132-10.167,22.864,4.295,47.325,18.044,50.911,41.04a41.047,41.047,0,0,1-2.835,21.681h60.383C2450.227,4835.16,2472.8,4808.67,2469.714,4775.654Z" transform="translate(-1191.867 -3782.467)" fill="url(#linear-gradient)"/>
          <path id="Path_16" data-name="Path 16" d="M2492.6,4398.758c1.63-27.766,11.414-54.312,17.327-81.487a296.122,296.122,0,0,0,3.492-106.575c-3.8-25.39-11.416-51.177-28.378-70.443-36.6-41.566-100.5-38.973-153.964-53.364-10.777-2.9-22.437-7.552-27.131-17.682-9.493-20.49,15.415-38.785,34.067-51.506a162.845,162.845,0,0,0,66.69-99.2c14.6-67.93-15.082-141.969,9.959-206.777,15.843-41.007,51.441-71.633,69.151-111.868,23.574-53.559,12.281-115.026,11.935-173.548a257.211,257.211,0,0,1,4.327-49.062h-66.116c.227,13.669.012,27.31-1.793,40.824-12.652,94.757-100.41,169.2-103.464,264.754-1.69,52.885,23.427,103.719,22.911,156.629-.779,79.863-62.614,150.322-137.035,179.211s-158.341,22.41-235.473,1.839-149.988-54.461-225.485-80.406c-53.992-18.554-120.639-30.611-162.494,8.231-30.134,27.966-36,72.475-49.555,111.3-42.744,122.468-186.633,199.541-312.2,167.226-92.373-23.771-164.095-95.2-249.147-138.386A260.192,260.192,0,0,0,951,4075.585v75.572c31.373,11.88,56.057,38.1,80.954,61.356,70.39,65.75,159.07,116.169,255.083,123.611s198.745-34.4,247.88-117.259c37.215-62.761,47.893-149.457,113.049-182.256,38.3-19.277,84.962-12.51,124.59,3.85s75.045,41.466,113.836,59.723A362.66,362.66,0,0,0,2059.8,4134c52.491-2.875,103.949-17.186,156.5-18.728,94.388-2.771,199.1,50.308,217.895,142.893,13.246,65.254-18.241,133.53-14.614,198.741h87.148C2495.559,4440.579,2491.42,4418.934,2492.6,4398.758Z" transform="translate(-951 -3377.25)" fill="url(#linear-gradient)"/>
          <path id="Path_17" data-name="Path 17" d="M3536.371,4270.085a140.819,140.819,0,0,0-22.158-5.222c-39.517-5.771-78.719,8.866-117.426,18.7-28.509,7.244-66.22,7.953-79.1-18.5-8.114-16.667-1.829-36.289.356-54.7,5.067-42.709-13.218-84.863-36.365-121.106-22.54-35.294-57.009-70.489-98.729-67.025-8.232.683-16.6,2.887-24.621.9-18.688-4.637-24.831-29.86-17.812-47.8s22.41-30.966,34.814-45.7c51.213-60.827,50.709-149.211,83.523-221.649,22.3-49.223,60.5-92.19,69.894-145.408,5.6-31.739.329-64.263-4.58-96.117-4.572-29.676-8.7-60.755.611-89.206H3265.05c-5.578,28.96-4.261,59.553-2.635,89.273,2.232,40.793,4.534,83.077-10.347,121.12-24.574,62.822-91.485,102.6-112.384,166.735-20.439,62.733,7.046,138.039-28.517,193.605-12.468,19.48-31.614,34.194-42.841,54.416s-10.585,50.781,10.04,61.236c7.737,3.922,16.735,4.194,25.4,4.594,30.85,1.423,62.229,5.673,89.921,19.346s51.425,38.063,58.043,68.243c12.347,56.3-35.83,110.864-30.093,168.214,4.277,42.766,42.493,79.545,85.372,82.164,21.44,1.31,42.722-4.947,64.2-4.512,40.856.827,77.458,25.627,106.682,54.205.345.336.687.678,1.03,1.017h57.453Z" transform="translate(-1615.786 -3377.25)" fill="url(#linear-gradient-17)"/>
          <path id="Path_18" data-name="Path 18" d="M3327.78,4401.686c-21.475-.435-42.757,5.822-64.2,4.512-42.878-2.619-81.094-39.4-85.371-82.164-5.736-57.351,42.44-111.917,30.093-168.214-6.618-30.18-30.349-54.569-58.043-68.243s-59.072-17.923-89.922-19.346c-8.665-.4-17.663-.672-25.4-4.594-20.625-10.455-21.268-41.015-10.04-61.236s30.373-34.936,42.842-54.416c35.563-55.567,8.078-130.873,28.517-193.605,20.9-64.139,87.809-103.913,112.384-166.735,14.882-38.043,12.579-80.328,10.347-121.12-1.626-29.72-2.943-60.314,2.635-89.273H3121.441a257.251,257.251,0,0,0-4.327,49.062c.346,58.522,11.639,119.989-11.935,173.548-17.709,40.235-53.308,70.861-69.151,111.868-25.04,64.808,4.64,138.847-9.958,206.777a162.848,162.848,0,0,1-66.69,99.2c-18.652,12.721-43.561,31.015-34.067,51.506,4.694,10.13,16.354,14.782,27.131,17.682,53.464,14.392,117.367,11.8,153.964,53.364,16.962,19.266,24.573,45.053,28.378,70.443a296.116,296.116,0,0,1-3.492,106.575c-5.914,27.176-15.7,53.722-17.327,81.487-1.185,20.176,2.954,41.821,14.122,58.149h307.4c-.343-.339-.684-.68-1.03-1.017C3405.238,4427.313,3368.636,4402.513,3327.78,4401.686Z" transform="translate(-1572.359 -3377.25)" fill="url(#linear-gradient-18)"/>
          <path id="Path_19" data-name="Path 19" d="M1110.3,3989.57c60.278,31.348,112.717,77.036,175.163,103.8s142.853,29.936,191.056-17.959c65.847-65.425,44-194.936,123.314-243.14,33.055-20.09,75.364-18.762,112.335-7.4s70.417,31.685,105.215,48.573c120.638,58.549,264.956,74.927,390.2,27.031,45.916-17.558,93.1-49.559,100.726-98.144,6.09-38.824-14.85-75.976-28.329-112.889-17.4-47.663-21.292-105.366,9.935-145.352,20.4-26.121,52.725-40.748,73.4-66.646,22.07-27.638,28-64.419,27.194-100.191H2285.035q.814,1.942,1.594,3.9c15.513,39.045,16.259,89.9-16.151,116.624-14.847,12.24-34.16,17.3-51.346,25.951-54.359,27.364-84.428,95.58-67.969,154.192,7.379,26.273,22.616,49.539,33.663,74.492s17.8,54.03,7.438,79.273c-12.741,31.028-48.646,47.4-82.175,47.165s-65.377-13.763-95.987-27.45-61.936-28-95.407-29.97c-21.482-1.264-43.366,2.617-64.387-1.988s-41.919-21.834-40.275-43.3c1.124-14.678,12.089-26.342,20.757-38.237,19.106-26.219,28.959-59.895,23.172-91.821-9.354-51.595-55.977-88.36-103.931-109.519s-100.491-31.961-145.814-58.295c-29.509-17.144-56.835-43.4-62-77.153a113.058,113.058,0,0,1-.673-23.862H1469.9a127.427,127.427,0,0,1,.937,17.979c-.393,20.357-5.184,40.476-5.054,60.836.251,39.192,19.974,77.785,51.585,100.934,32.707,23.953,74.473,30.671,114.316,38.118s81.662,17.464,110.677,45.78,38.079,80.844,8.284,108.336c-28.465,26.265-72.981,17.282-111.616,19.887a170.457,170.457,0,0,0-119.224,61.728c-22.546,27.725-35.637,61.742-53.347,92.783s-42.595,60.956-77.013,70.532c-48.567,13.512-97.3-16.943-139.158-45.044-65.105-43.707-133.232-85.828-209.44-104.267a312.8,312.8,0,0,0-89.845-8.52v107.511c6.428.224,12.768.754,18.9,1.556A424.286,424.286,0,0,1,1110.3,3989.57Z" transform="translate(-951 -3377.25)" fill="url(#linear-gradient)"/>
          <path id="Path_20" data-name="Path 20" d="M1040.845,3844.852c76.208,18.438,144.334,60.56,209.44,104.267,41.86,28.1,90.592,58.556,139.158,45.044,34.418-9.576,59.3-39.491,77.013-70.532s30.8-65.058,53.347-92.783a170.457,170.457,0,0,1,119.224-61.728c38.635-2.6,83.151,6.378,111.616-19.887,29.8-27.492,20.732-80.02-8.284-108.336s-70.834-38.333-110.677-45.78-81.609-14.166-114.316-38.118c-31.61-23.149-51.334-61.742-51.585-100.934-.13-20.36,4.661-40.479,5.054-60.836a127.427,127.427,0,0,0-.937-17.979H1368.192c14,13.564,25.846,28.816,31.383,47.3,6.169,20.591,3.65,42.652,5.418,64.075,5.776,70,63.229,132.419,132.485,143.934,22.843,3.8,46.589,2.63,68.691,9.541a98.4,98.4,0,0,1,53.58,41.412c3.962,6.35,7.255,13.414,7.453,20.9.406,15.332-12.569,28.367-27.044,33.419s-30.251,4-45.572,3.455c-50.815-1.816-106.544,4.67-142.459,40.683-32.851,32.94-43.446,85.386-81.6,111.994-28.466,19.851-66.839,20.47-100.019,10.312s-62.5-29.8-91.655-48.616c-50.663-32.7-103.175-64.032-161.064-80.893A302.573,302.573,0,0,0,951,3763.035v73.3A312.8,312.8,0,0,1,1040.845,3844.852Z" transform="translate(-951 -3377.25)" fill="url(#linear-gradient)"/>
          <path id="Path_21" data-name="Path 21" d="M1178.854,3855.655c29.157,18.821,58.474,38.458,91.655,48.616s71.553,9.539,100.019-10.312c38.155-26.608,48.75-79.054,81.6-111.994,35.915-36.013,91.643-42.5,142.459-40.683,15.321.548,31.1,1.6,45.572-3.455s27.45-18.087,27.044-33.419c-.2-7.483-3.491-14.548-7.453-20.9a98.4,98.4,0,0,0-53.58-41.412c-22.1-6.911-45.848-5.743-68.691-9.541-69.256-11.515-126.709-73.932-132.485-143.934-1.768-21.424.751-43.484-5.418-64.075-5.538-18.483-17.38-33.734-31.383-47.3H1189.022c21.983,8.7,44.332,16.58,65.507,27.068,32.427,16.061,63.205,39.965,76.208,73.746,16.253,42.225,4.162,96.806,36.616,128.319,17.284,16.782,42.606,21.589,66.412,25.257s49.073,7.578,67.372,23.248,24.8,47.614,6.465,63.245c-13,11.082-32.037,9.743-49.1,9.238-32.814-.971-66.73,3.786-94.984,20.51-37.846,22.4-69.707,66.681-113.234,60.423-12.295-1.767-23.57-7.666-34.38-13.789-52.55-29.768-100.879-67.154-155.875-92.108-34.033-15.442-71.976-25.692-109.026-25.434v86.061a302.573,302.573,0,0,1,66.79,11.727C1075.678,3791.623,1128.191,3822.952,1178.854,3855.655Z" transform="translate(-951 -3377.25)" fill="url(#linear-gradient)"/>
          <path id="Path_22" data-name="Path 22" d="M984.114,4810.533A192.716,192.716,0,0,0,951,4794.176v108.667h164.842a393.335,393.335,0,0,1-50.141-30.973C1038.172,4851.845,1013.124,4828.344,984.114,4810.533Z" transform="translate(-951 -3823.186)" fill="url(#linear-gradient)"/>
          <path id="Path_23" data-name="Path 23" d="M1229.373,4226.857c125.57,32.315,269.459-44.758,312.2-167.226,13.55-38.823,19.42-83.333,49.555-111.3,41.854-38.842,108.5-26.785,162.494-8.231,75.5,25.945,148.351,59.834,225.485,80.406s161.052,27.051,235.473-1.839,136.256-99.348,137.035-179.211c.516-52.91-24.6-103.743-22.911-156.629,3.054-95.55,90.813-170,103.464-264.754,1.8-13.515,2.021-27.155,1.793-40.824h-43.449c.808,35.772-5.125,72.553-27.194,100.191-20.68,25.9-53.006,40.525-73.4,66.646-31.227,39.985-27.34,97.689-9.935,145.352,13.479,36.914,34.419,74.065,28.329,112.889-7.621,48.584-54.81,80.585-100.726,98.144-125.246,47.9-269.563,31.517-390.2-27.031-34.8-16.888-68.242-37.214-105.215-48.573s-79.281-12.686-112.335,7.4c-79.313,48.2-57.468,177.714-123.314,243.14-48.2,47.895-128.609,44.723-191.056,17.959s-114.885-72.452-175.163-103.8A424.286,424.286,0,0,0,969.9,3945.4c-6.133-.8-12.473-1.332-18.9-1.556v131.742a260.192,260.192,0,0,1,29.226,12.886C1065.278,4131.659,1137,4203.086,1229.373,4226.857Z" transform="translate(-951 -3377.25)" fill="url(#linear-gradient)"/>
          <path id="Path_24" data-name="Path 24" d="M2437.915,4880.2c-3.586-23-28.047-36.746-50.911-41.041-63.053-11.843-128,21.558-191.132,10.167-38.991-7.035-72.8-30.375-109.427-45.481s-82.561-20.547-112.766,5.105c-26.655,22.637-31.616,60.752-45.965,92.93H2435.08A41.05,41.05,0,0,0,2437.915,4880.2Z" transform="translate(-1258.718 -3822.222)" fill="url(#linear-gradient)"/>
        </g>
        <g id="Group_204" data-name="Group 204" transform="translate(0 0)" opacity="0.5">
          <g id="Group_2" data-name="Group 2" transform="translate(0 0.073)">
            <rect id="Rectangle_2" data-name="Rectangle 2" width="2354.414" height="0.111" transform="translate(0 1665.273) rotate(-45)" fill="url(#linear-gradient-25)"/>
          </g>
          <g id="Group_3" data-name="Group 3" transform="translate(15.424 0.073)">
            <rect id="Rectangle_3" data-name="Rectangle 3" width="2354.414" height="0.111" transform="translate(0 1665.273) rotate(-45)" fill="url(#linear-gradient-25)"/>
          </g>
          <g id="Group_4" data-name="Group 4" transform="translate(30.848 0.073)">
            <rect id="Rectangle_4" data-name="Rectangle 4" width="2354.414" height="0.111" transform="translate(0 1665.273) rotate(-45)" fill="url(#linear-gradient-25)"/>
          </g>
          <g id="Group_5" data-name="Group 5" transform="translate(46.273 0.073)">
            <rect id="Rectangle_5" data-name="Rectangle 5" width="2354.414" height="0.111" transform="translate(0 1665.273) rotate(-45)" fill="url(#linear-gradient-25)"/>
          </g>
          <g id="Group_6" data-name="Group 6" transform="translate(61.697 0.073)">
            <rect id="Rectangle_6" data-name="Rectangle 6" width="2354.414" height="0.111" transform="translate(0 1665.273) rotate(-45)" fill="url(#linear-gradient-25)"/>
          </g>
          <g id="Group_7" data-name="Group 7" transform="translate(77.121 0.073)">
            <rect id="Rectangle_7" data-name="Rectangle 7" width="2354.414" height="0.111" transform="translate(0 1665.273) rotate(-45)" fill="url(#linear-gradient-25)"/>
          </g>
          <g id="Group_8" data-name="Group 8" transform="translate(92.545 0.073)">
            <rect id="Rectangle_8" data-name="Rectangle 8" width="2354.414" height="0.111" transform="translate(0 1665.273) rotate(-45)" fill="url(#linear-gradient-25)"/>
          </g>
          <g id="Group_9" data-name="Group 9" transform="translate(107.969 0.073)">
            <rect id="Rectangle_9" data-name="Rectangle 9" width="2354.414" height="0.111" transform="translate(0 1665.273) rotate(-45)" fill="url(#linear-gradient-25)"/>
          </g>
          <g id="Group_10" data-name="Group 10" transform="translate(123.393 0.073)">
            <rect id="Rectangle_10" data-name="Rectangle 10" width="2354.414" height="0.111" transform="translate(0 1665.273) rotate(-45)" fill="url(#linear-gradient-25)"/>
          </g>
          <g id="Group_11" data-name="Group 11" transform="translate(138.817 0.073)">
            <rect id="Rectangle_11" data-name="Rectangle 11" width="2354.414" height="0.111" transform="translate(0 1665.273) rotate(-45)" fill="url(#linear-gradient-25)"/>
          </g>
          <g id="Group_12" data-name="Group 12" transform="translate(154.242 0.073)">
            <rect id="Rectangle_12" data-name="Rectangle 12" width="2354.414" height="0.111" transform="translate(0 1665.273) rotate(-45)" fill="url(#linear-gradient-25)"/>
          </g>
          <g id="Group_13" data-name="Group 13" transform="translate(169.725 0.014)">
            <rect id="Rectangle_13" data-name="Rectangle 13" width="2354.414" height="0.111" transform="translate(0 1665.39) rotate(-45.004)" fill="url(#linear-gradient-25)"/>
          </g>
          <g id="Group_14" data-name="Group 14" transform="translate(185.09 0.073)">
            <rect id="Rectangle_14" data-name="Rectangle 14" width="2354.414" height="0.111" transform="translate(0 1665.273) rotate(-45)" fill="url(#linear-gradient-25)"/>
          </g>
          <g id="Group_15" data-name="Group 15" transform="translate(200.573 0.014)">
            <rect id="Rectangle_15" data-name="Rectangle 15" width="2354.414" height="0.111" transform="translate(0 1665.39) rotate(-45.004)" fill="url(#linear-gradient-25)"/>
          </g>
          <g id="Group_16" data-name="Group 16" transform="translate(215.938 0.073)">
            <rect id="Rectangle_16" data-name="Rectangle 16" width="2354.414" height="0.111" transform="translate(0 1665.273) rotate(-45)" fill="url(#linear-gradient-25)"/>
          </g>
          <g id="Group_17" data-name="Group 17" transform="translate(231.421 0.014)">
            <rect id="Rectangle_17" data-name="Rectangle 17" width="2354.414" height="0.111" transform="translate(0 1665.39) rotate(-45.004)" fill="url(#linear-gradient-25)"/>
          </g>
          <g id="Group_18" data-name="Group 18" transform="translate(246.786 0.073)">
            <rect id="Rectangle_18" data-name="Rectangle 18" width="2354.414" height="0.111" transform="translate(0 1665.273) rotate(-45)" fill="url(#linear-gradient-25)"/>
          </g>
          <g id="Group_19" data-name="Group 19" transform="translate(262.27 0.014)">
            <rect id="Rectangle_19" data-name="Rectangle 19" width="2354.414" height="0.111" transform="translate(0 1665.39) rotate(-45.004)" fill="url(#linear-gradient-25)"/>
          </g>
          <g id="Group_20" data-name="Group 20" transform="translate(277.635 0.073)">
            <rect id="Rectangle_20" data-name="Rectangle 20" width="2354.414" height="0.111" transform="translate(0 1665.273) rotate(-45)" fill="url(#linear-gradient-25)"/>
          </g>
          <g id="Group_21" data-name="Group 21" transform="translate(293.118 0.014)">
            <rect id="Rectangle_21" data-name="Rectangle 21" width="2354.414" height="0.111" transform="translate(0 1665.39) rotate(-45.004)" fill="url(#linear-gradient-25)"/>
          </g>
          <g id="Group_22" data-name="Group 22" transform="translate(308.483 0.073)">
            <rect id="Rectangle_22" data-name="Rectangle 22" width="2354.414" height="0.111" transform="translate(0 1665.273) rotate(-45)" fill="url(#linear-gradient-25)"/>
          </g>
          <g id="Group_23" data-name="Group 23" transform="translate(323.966 0.014)">
            <rect id="Rectangle_23" data-name="Rectangle 23" width="2354.414" height="0.111" transform="translate(0 1665.39) rotate(-45.004)" fill="url(#linear-gradient-25)"/>
          </g>
          <g id="Group_24" data-name="Group 24" transform="translate(339.332 0.073)">
            <rect id="Rectangle_24" data-name="Rectangle 24" width="2354.414" height="0.111" transform="translate(0 1665.273) rotate(-45)" fill="url(#linear-gradient-25)"/>
          </g>
          <g id="Group_25" data-name="Group 25" transform="translate(354.814 0.014)">
            <rect id="Rectangle_25" data-name="Rectangle 25" width="2354.414" height="0.111" transform="translate(0 1665.39) rotate(-45.004)" fill="url(#linear-gradient-25)"/>
          </g>
          <g id="Group_26" data-name="Group 26" transform="translate(370.18 0.073)">
            <rect id="Rectangle_26" data-name="Rectangle 26" width="2354.414" height="0.111" transform="translate(0 1665.273) rotate(-45)" fill="url(#linear-gradient-25)"/>
          </g>
          <g id="Group_27" data-name="Group 27" transform="translate(385.604 0.073)">
            <rect id="Rectangle_27" data-name="Rectangle 27" width="2354.414" height="0.111" transform="translate(0 1665.273) rotate(-45)" fill="url(#linear-gradient-25)"/>
          </g>
          <g id="Group_28" data-name="Group 28" transform="translate(401.028 0.073)">
            <rect id="Rectangle_28" data-name="Rectangle 28" width="2354.414" height="0.111" transform="translate(0 1665.273) rotate(-45)" fill="url(#linear-gradient-25)"/>
          </g>
          <g id="Group_29" data-name="Group 29" transform="translate(416.452 0.073)">
            <rect id="Rectangle_29" data-name="Rectangle 29" width="2354.414" height="0.111" transform="translate(0 1665.273) rotate(-45)" fill="url(#linear-gradient-25)"/>
          </g>
          <g id="Group_30" data-name="Group 30" transform="translate(431.876 0.073)">
            <rect id="Rectangle_30" data-name="Rectangle 30" width="2354.414" height="0.111" transform="translate(0 1665.273) rotate(-45)" fill="url(#linear-gradient-25)"/>
          </g>
          <g id="Group_31" data-name="Group 31" transform="translate(447.301 0.073)">
            <rect id="Rectangle_31" data-name="Rectangle 31" width="2354.414" height="0.111" transform="translate(0 1665.273) rotate(-45)" fill="url(#linear-gradient-25)"/>
          </g>
          <g id="Group_32" data-name="Group 32" transform="translate(462.725 0.073)">
            <rect id="Rectangle_32" data-name="Rectangle 32" width="2354.414" height="0.111" transform="translate(0 1665.273) rotate(-45)" fill="url(#linear-gradient-25)"/>
          </g>
          <g id="Group_33" data-name="Group 33" transform="translate(478.149 0.073)">
            <rect id="Rectangle_33" data-name="Rectangle 33" width="2354.414" height="0.111" transform="translate(0 1665.273) rotate(-45)" fill="url(#linear-gradient-25)"/>
          </g>
          <g id="Group_34" data-name="Group 34" transform="translate(493.632 0.014)">
            <rect id="Rectangle_34" data-name="Rectangle 34" width="2354.414" height="0.111" transform="translate(0 1665.39) rotate(-45.004)" fill="url(#linear-gradient-25)"/>
          </g>
          <g id="Group_35" data-name="Group 35" transform="translate(508.997 0.073)">
            <rect id="Rectangle_35" data-name="Rectangle 35" width="2354.414" height="0.111" transform="translate(0 1665.273) rotate(-45)" fill="url(#linear-gradient-25)"/>
          </g>
          <g id="Group_36" data-name="Group 36" transform="translate(524.48 0.014)">
            <rect id="Rectangle_36" data-name="Rectangle 36" width="2354.414" height="0.111" transform="translate(0 1665.39) rotate(-45.004)" fill="url(#linear-gradient-25)"/>
          </g>
          <g id="Group_37" data-name="Group 37" transform="translate(539.846 0.073)">
            <rect id="Rectangle_37" data-name="Rectangle 37" width="2354.414" height="0.111" transform="translate(0 1665.273) rotate(-45)" fill="url(#linear-gradient-25)"/>
          </g>
          <g id="Group_38" data-name="Group 38" transform="translate(555.329 0.014)">
            <rect id="Rectangle_38" data-name="Rectangle 38" width="2354.414" height="0.111" transform="translate(0 1665.39) rotate(-45.004)" fill="url(#linear-gradient-25)"/>
          </g>
          <g id="Group_39" data-name="Group 39" transform="translate(570.694 0.073)">
            <rect id="Rectangle_39" data-name="Rectangle 39" width="2354.414" height="0.111" transform="translate(0 1665.273) rotate(-45)" fill="url(#linear-gradient-25)"/>
          </g>
          <g id="Group_40" data-name="Group 40" transform="translate(586.177 0.014)">
            <rect id="Rectangle_40" data-name="Rectangle 40" width="2354.414" height="0.111" transform="translate(0 1665.39) rotate(-45.004)" fill="url(#linear-gradient-25)"/>
          </g>
          <g id="Group_41" data-name="Group 41" transform="translate(601.542 0.073)">
            <rect id="Rectangle_41" data-name="Rectangle 41" width="2354.414" height="0.111" transform="translate(0 1665.273) rotate(-45)" fill="url(#linear-gradient-25)"/>
          </g>
          <g id="Group_42" data-name="Group 42" transform="translate(617.025 0.014)">
            <rect id="Rectangle_42" data-name="Rectangle 42" width="2354.414" height="0.111" transform="translate(0 1665.39) rotate(-45.004)" fill="url(#linear-gradient-25)"/>
          </g>
          <g id="Group_43" data-name="Group 43" transform="translate(632.391 0.073)">
            <rect id="Rectangle_43" data-name="Rectangle 43" width="2354.414" height="0.111" transform="translate(0 1665.273) rotate(-45)" fill="url(#linear-gradient-25)"/>
          </g>
          <g id="Group_44" data-name="Group 44" transform="translate(647.874 0.014)">
            <rect id="Rectangle_44" data-name="Rectangle 44" width="2354.414" height="0.111" transform="translate(0 1665.39) rotate(-45.004)" fill="url(#linear-gradient-25)"/>
          </g>
          <g id="Group_45" data-name="Group 45" transform="translate(663.239 0.073)">
            <rect id="Rectangle_45" data-name="Rectangle 45" width="2354.414" height="0.111" transform="translate(0 1665.273) rotate(-45)" fill="url(#linear-gradient-25)"/>
          </g>
          <g id="Group_46" data-name="Group 46" transform="translate(678.722 0.014)">
            <rect id="Rectangle_46" data-name="Rectangle 46" width="2354.414" height="0.111" transform="translate(0 1665.39) rotate(-45.004)" fill="url(#linear-gradient-25)"/>
          </g>
          <g id="Group_47" data-name="Group 47" transform="translate(694.087 0.073)">
            <rect id="Rectangle_47" data-name="Rectangle 47" width="2354.414" height="0.111" transform="translate(0 1665.273) rotate(-45)" fill="url(#linear-gradient-25)"/>
          </g>
          <g id="Group_48" data-name="Group 48" transform="translate(709.511 0.073)">
            <rect id="Rectangle_48" data-name="Rectangle 48" width="2354.414" height="0.111" transform="translate(0 1665.273) rotate(-45)" fill="url(#linear-gradient-25)"/>
          </g>
          <g id="Group_49" data-name="Group 49" transform="translate(724.935 0.073)">
            <rect id="Rectangle_49" data-name="Rectangle 49" width="2354.414" height="0.111" transform="translate(0 1665.273) rotate(-45)" fill="url(#linear-gradient-25)"/>
          </g>
          <g id="Group_50" data-name="Group 50" transform="translate(740.36 0.073)">
            <rect id="Rectangle_50" data-name="Rectangle 50" width="2354.414" height="0.111" transform="translate(0 1665.273) rotate(-45)" fill="url(#linear-gradient-25)"/>
          </g>
          <g id="Group_51" data-name="Group 51" transform="translate(755.784 0.073)">
            <rect id="Rectangle_51" data-name="Rectangle 51" width="2354.414" height="0.111" transform="translate(0 1665.273) rotate(-45)" fill="url(#linear-gradient-25)"/>
          </g>
          <g id="Group_52" data-name="Group 52" transform="translate(771.208 0.073)">
            <rect id="Rectangle_52" data-name="Rectangle 52" width="2354.414" height="0.111" transform="translate(0 1665.273) rotate(-45)" fill="url(#linear-gradient-25)"/>
          </g>
          <g id="Group_53" data-name="Group 53" transform="translate(786.632 0.073)">
            <rect id="Rectangle_53" data-name="Rectangle 53" width="2354.414" height="0.111" transform="translate(0 1665.273) rotate(-45)" fill="url(#linear-gradient-25)"/>
          </g>
          <g id="Group_54" data-name="Group 54" transform="translate(802.056 0.073)">
            <rect id="Rectangle_54" data-name="Rectangle 54" width="2354.414" height="0.111" transform="translate(0 1665.273) rotate(-45)" fill="url(#linear-gradient-25)"/>
          </g>
          <g id="Group_55" data-name="Group 55" transform="translate(817.481 0.073)">
            <rect id="Rectangle_55" data-name="Rectangle 55" width="2354.414" height="0.111" transform="translate(0 1665.273) rotate(-45)" fill="url(#linear-gradient-25)"/>
          </g>
          <g id="Group_56" data-name="Group 56" transform="translate(832.905 0.073)">
            <rect id="Rectangle_56" data-name="Rectangle 56" width="2354.414" height="0.111" transform="translate(0 1665.273) rotate(-45)" fill="url(#linear-gradient-25)"/>
          </g>
          <g id="Group_57" data-name="Group 57" transform="translate(848.329 0.073)">
            <rect id="Rectangle_57" data-name="Rectangle 57" width="2354.414" height="0.111" transform="translate(0 1665.273) rotate(-45)" fill="url(#linear-gradient-25)"/>
          </g>
          <g id="Group_58" data-name="Group 58" transform="translate(863.753 0.073)">
            <rect id="Rectangle_58" data-name="Rectangle 58" width="2354.414" height="0.111" transform="translate(0 1665.273) rotate(-45)" fill="url(#linear-gradient-25)"/>
          </g>
          <g id="Group_59" data-name="Group 59" transform="translate(879.236 0.014)">
            <rect id="Rectangle_59" data-name="Rectangle 59" width="2354.414" height="0.111" transform="translate(0 1665.39) rotate(-45.004)" fill="url(#linear-gradient-25)"/>
          </g>
          <g id="Group_60" data-name="Group 60" transform="translate(894.601 0.073)">
            <rect id="Rectangle_60" data-name="Rectangle 60" width="2354.414" height="0.111" transform="translate(0 1665.273) rotate(-45)" fill="url(#linear-gradient-25)"/>
          </g>
          <g id="Group_61" data-name="Group 61" transform="translate(910.084 0.014)">
            <rect id="Rectangle_61" data-name="Rectangle 61" width="2354.414" height="0.111" transform="translate(0 1665.39) rotate(-45.004)" fill="url(#linear-gradient-25)"/>
          </g>
          <g id="Group_62" data-name="Group 62" transform="translate(925.45 0.073)">
            <rect id="Rectangle_62" data-name="Rectangle 62" width="2354.414" height="0.111" transform="translate(0 1665.273) rotate(-45)" fill="url(#linear-gradient-25)"/>
          </g>
          <g id="Group_63" data-name="Group 63" transform="translate(940.932 0.014)">
            <rect id="Rectangle_63" data-name="Rectangle 63" width="2354.414" height="0.111" transform="translate(0 1665.39) rotate(-45.004)" fill="url(#linear-gradient-25)"/>
          </g>
          <g id="Group_64" data-name="Group 64" transform="translate(956.298 0.073)">
            <rect id="Rectangle_64" data-name="Rectangle 64" width="2354.414" height="0.111" transform="translate(0 1665.273) rotate(-45)" fill="url(#linear-gradient-25)"/>
          </g>
          <g id="Group_65" data-name="Group 65" transform="translate(971.785 0.01)">
            <rect id="Rectangle_65" data-name="Rectangle 65" width="2354.414" height="0.111" transform="translate(0 1665.399) rotate(-45.004)" fill="url(#linear-gradient-25)"/>
          </g>
          <g id="Group_66" data-name="Group 66" transform="translate(987.146 0.073)">
            <rect id="Rectangle_66" data-name="Rectangle 66" width="2354.414" height="0.111" transform="translate(0 1665.273) rotate(-45)" fill="url(#linear-gradient-25)"/>
          </g>
          <g id="Group_67" data-name="Group 67" transform="translate(1002.624 0.019)">
            <rect id="Rectangle_67" data-name="Rectangle 67" width="2354.414" height="0.111" transform="matrix(0.707, -0.707, 0.707, 0.707, 0, 1665.38)" fill="url(#linear-gradient-25)"/>
          </g>
          <g id="Group_68" data-name="Group 68" transform="translate(1017.995 0.073)">
            <rect id="Rectangle_68" data-name="Rectangle 68" width="2354.414" height="0.111" transform="translate(0 1665.273) rotate(-45)" fill="url(#linear-gradient-25)"/>
          </g>
          <g id="Group_69" data-name="Group 69" transform="translate(1033.478 0.014)">
            <rect id="Rectangle_69" data-name="Rectangle 69" width="2354.414" height="0.111" transform="translate(0 1665.39) rotate(-45.004)" fill="url(#linear-gradient-25)"/>
          </g>
          <g id="Group_70" data-name="Group 70" transform="translate(1048.843 0.073)">
            <rect id="Rectangle_70" data-name="Rectangle 70" width="2354.414" height="0.111" transform="translate(0 1665.273) rotate(-45)" fill="url(#linear-gradient-25)"/>
          </g>
          <g id="Group_71" data-name="Group 71" transform="translate(1064.326 0.014)">
            <rect id="Rectangle_71" data-name="Rectangle 71" width="2354.414" height="0.111" transform="translate(0 1665.39) rotate(-45.004)" fill="url(#linear-gradient-25)"/>
          </g>
          <g id="Group_72" data-name="Group 72" transform="translate(1079.691 0.073)">
            <rect id="Rectangle_72" data-name="Rectangle 72" width="2354.414" height="0.111" transform="translate(0 1665.273) rotate(-45)" fill="url(#linear-gradient-25)"/>
          </g>
          <g id="Group_73" data-name="Group 73" transform="translate(1095.174 0.014)">
            <rect id="Rectangle_73" data-name="Rectangle 73" width="2354.414" height="0.111" transform="translate(0 1665.39) rotate(-45.004)" fill="url(#linear-gradient-25)"/>
          </g>
          <g id="Group_74" data-name="Group 74" transform="translate(1110.54 0.073)">
            <rect id="Rectangle_74" data-name="Rectangle 74" width="2354.414" height="0.111" transform="translate(0 1665.273) rotate(-45)" fill="url(#linear-gradient-25)"/>
          </g>
          <g id="Group_75" data-name="Group 75" transform="translate(1125.964 0.073)">
            <rect id="Rectangle_75" data-name="Rectangle 75" width="2354.414" height="0.111" transform="translate(0 1665.273) rotate(-45)" fill="url(#linear-gradient-25)"/>
          </g>
          <g id="Group_76" data-name="Group 76" transform="translate(1141.388 0.073)">
            <rect id="Rectangle_76" data-name="Rectangle 76" width="2354.413" height="0.111" transform="translate(0 1665.272) rotate(-45)" fill="url(#linear-gradient-25)"/>
          </g>
          <g id="Group_77" data-name="Group 77" transform="translate(1156.812 0.073)">
            <rect id="Rectangle_77" data-name="Rectangle 77" width="2354.414" height="0.111" transform="translate(0 1665.273) rotate(-45)" fill="url(#linear-gradient-25)"/>
          </g>
          <g id="Group_78" data-name="Group 78" transform="translate(1172.236 0.073)">
            <rect id="Rectangle_78" data-name="Rectangle 78" width="2354.414" height="0.111" transform="translate(0 1665.273) rotate(-45)" fill="url(#linear-gradient-25)"/>
          </g>
          <g id="Group_79" data-name="Group 79" transform="translate(1187.66 0.073)">
            <rect id="Rectangle_79" data-name="Rectangle 79" width="2354.414" height="0.111" transform="translate(0 1665.273) rotate(-45)" fill="url(#linear-gradient-25)"/>
          </g>
          <g id="Group_80" data-name="Group 80" transform="translate(1203.084 0.073)">
            <rect id="Rectangle_80" data-name="Rectangle 80" width="2354.413" height="0.111" transform="translate(0 1665.272) rotate(-45)" fill="url(#linear-gradient-25)"/>
          </g>
          <g id="Group_81" data-name="Group 81" transform="translate(1218.509 0.073)">
            <rect id="Rectangle_81" data-name="Rectangle 81" width="2354.414" height="0.111" transform="translate(0 1665.273) rotate(-45)" fill="url(#linear-gradient-25)"/>
          </g>
          <g id="Group_82" data-name="Group 82" transform="translate(1233.933 0.073)">
            <rect id="Rectangle_82" data-name="Rectangle 82" width="2354.414" height="0.111" transform="translate(0 1665.273) rotate(-45)" fill="url(#linear-gradient-25)"/>
          </g>
          <g id="Group_83" data-name="Group 83" transform="translate(1249.357 0.073)">
            <rect id="Rectangle_83" data-name="Rectangle 83" width="2354.413" height="0.111" transform="translate(0 1665.272) rotate(-45)" fill="url(#linear-gradient-25)"/>
          </g>
          <g id="Group_84" data-name="Group 84" transform="translate(1264.781 0.073)">
            <rect id="Rectangle_84" data-name="Rectangle 84" width="2354.414" height="0.111" transform="translate(0 1665.273) rotate(-45)" fill="url(#linear-gradient-25)"/>
          </g>
          <g id="Group_85" data-name="Group 85" transform="translate(1280.205 0.073)">
            <rect id="Rectangle_85" data-name="Rectangle 85" width="2354.414" height="0.111" transform="translate(0 1665.273) rotate(-45)" fill="url(#linear-gradient-25)"/>
          </g>
          <g id="Group_86" data-name="Group 86" transform="translate(1295.688 0.014)">
            <rect id="Rectangle_86" data-name="Rectangle 86" width="2354.414" height="0.111" transform="translate(0 1665.39) rotate(-45.004)" fill="url(#linear-gradient-25)"/>
          </g>
          <g id="Group_87" data-name="Group 87" transform="translate(1311.054 0.073)">
            <rect id="Rectangle_87" data-name="Rectangle 87" width="2354.413" height="0.111" transform="translate(0 1665.272) rotate(-45)" fill="url(#linear-gradient-25)"/>
          </g>
          <g id="Group_88" data-name="Group 88" transform="translate(1326.537 0.014)">
            <rect id="Rectangle_88" data-name="Rectangle 88" width="2354.414" height="0.111" transform="translate(0 1665.39) rotate(-45.004)" fill="url(#linear-gradient-25)"/>
          </g>
          <g id="Group_89" data-name="Group 89" transform="translate(1341.902 0.073)">
            <rect id="Rectangle_89" data-name="Rectangle 89" width="2354.414" height="0.111" transform="translate(0 1665.273) rotate(-45)" fill="url(#linear-gradient-25)"/>
          </g>
          <g id="Group_90" data-name="Group 90" transform="translate(1357.385 0.014)">
            <rect id="Rectangle_90" data-name="Rectangle 90" width="2354.414" height="0.111" transform="translate(0 1665.39) rotate(-45.004)" fill="url(#linear-gradient-25)"/>
          </g>
          <g id="Group_91" data-name="Group 91" transform="translate(1372.75 0.073)">
            <rect id="Rectangle_91" data-name="Rectangle 91" width="2354.414" height="0.111" transform="translate(0 1665.273) rotate(-45)" fill="url(#linear-gradient-25)"/>
          </g>
          <g id="Group_92" data-name="Group 92" transform="translate(1388.247 0.001)">
            <rect id="Rectangle_92" data-name="Rectangle 92" width="2354.414" height="0.111" transform="translate(0 1665.417) rotate(-45.005)" fill="url(#linear-gradient-25)"/>
          </g>
          <g id="Group_93" data-name="Group 93" transform="translate(1403.598 0.073)">
            <rect id="Rectangle_93" data-name="Rectangle 93" width="2354.414" height="0.111" transform="translate(0 1665.273) rotate(-45)" fill="url(#linear-gradient-25)"/>
          </g>
          <g id="Group_94" data-name="Group 94" transform="translate(1419.081 0.014)">
            <rect id="Rectangle_94" data-name="Rectangle 94" width="2354.414" height="0.111" transform="translate(0 1665.39) rotate(-45.004)" fill="url(#linear-gradient-25)"/>
          </g>
          <g id="Group_95" data-name="Group 95" transform="translate(1434.447 0.073)">
            <rect id="Rectangle_95" data-name="Rectangle 95" width="2354.414" height="0.111" transform="translate(0 1665.273) rotate(-45)" fill="url(#linear-gradient-25)"/>
          </g>
          <g id="Group_96" data-name="Group 96" transform="translate(1449.889 0.055)">
            <rect id="Rectangle_96" data-name="Rectangle 96" width="2354.414" height="0.111" transform="translate(0 1665.308) rotate(-45.001)" fill="url(#linear-gradient-25)"/>
          </g>
          <g id="Group_97" data-name="Group 97" transform="translate(1465.295 0.073)">
            <rect id="Rectangle_97" data-name="Rectangle 97" width="2354.413" height="0.111" transform="translate(0 1665.272) rotate(-45)" fill="url(#linear-gradient-25)"/>
          </g>
          <g id="Group_98" data-name="Group 98" transform="translate(1480.778 0.014)">
            <rect id="Rectangle_98" data-name="Rectangle 98" width="2354.414" height="0.111" transform="translate(0 1665.391) rotate(-45.004)" fill="url(#linear-gradient-25)"/>
          </g>
          <g id="Group_99" data-name="Group 99" transform="translate(1496.144 0.073)">
            <rect id="Rectangle_99" data-name="Rectangle 99" width="2354.414" height="0.111" transform="translate(0 1665.273) rotate(-45)" fill="url(#linear-gradient-25)"/>
          </g>
          <g id="Group_100" data-name="Group 100" transform="translate(1511.626 0.014)">
            <rect id="Rectangle_100" data-name="Rectangle 100" width="2354.414" height="0.111" transform="translate(0 1665.39) rotate(-45.004)" fill="url(#linear-gradient-25)"/>
          </g>
          <g id="Group_101" data-name="Group 101" transform="translate(1526.992 0.073)">
            <rect id="Rectangle_101" data-name="Rectangle 101" width="2354.413" height="0.111" transform="translate(0 1665.272) rotate(-45)" fill="url(#linear-gradient-25)"/>
          </g>
          <g id="Group_102" data-name="Group 102" transform="translate(1542.416 0.073)">
            <rect id="Rectangle_102" data-name="Rectangle 102" width="2354.414" height="0.111" transform="translate(0 1665.273) rotate(-45)" fill="url(#linear-gradient-25)"/>
          </g>
          <g id="Group_103" data-name="Group 103" transform="translate(1557.84 0.073)">
            <rect id="Rectangle_103" data-name="Rectangle 103" width="2354.414" height="0.111" transform="translate(0 1665.273) rotate(-45)" fill="url(#linear-gradient-25)"/>
          </g>
          <g id="Group_104" data-name="Group 104" transform="translate(1573.264 0.073)">
            <rect id="Rectangle_104" data-name="Rectangle 104" width="2354.413" height="0.111" transform="translate(0 1665.272) rotate(-45)" fill="url(#linear-gradient-25)"/>
          </g>
          <g id="Group_105" data-name="Group 105" transform="translate(1588.688 0.073)">
            <rect id="Rectangle_105" data-name="Rectangle 105" width="2354.414" height="0.111" transform="translate(0 1665.273) rotate(-45)" fill="url(#linear-gradient-25)"/>
          </g>
          <g id="Group_106" data-name="Group 106" transform="translate(1604.113 0.073)">
            <rect id="Rectangle_106" data-name="Rectangle 106" width="2354.414" height="0.111" transform="translate(0 1665.273) rotate(-45)" fill="url(#linear-gradient-25)"/>
          </g>
          <g id="Group_107" data-name="Group 107" transform="translate(1619.536 0.073)">
            <rect id="Rectangle_107" data-name="Rectangle 107" width="2354.414" height="0.111" transform="translate(0 1665.273) rotate(-45)" fill="url(#linear-gradient-25)"/>
          </g>
          <g id="Group_108" data-name="Group 108" transform="translate(1634.961 0.073)">
            <rect id="Rectangle_108" data-name="Rectangle 108" width="2354.414" height="0.111" transform="translate(0 1665.273) rotate(-45)" fill="url(#linear-gradient-25)"/>
          </g>
          <g id="Group_109" data-name="Group 109" transform="translate(1650.439 0.019)">
            <rect id="Rectangle_109" data-name="Rectangle 109" width="2354.414" height="0.111" transform="matrix(0.707, -0.707, 0.707, 0.707, 0, 1665.382)" fill="url(#linear-gradient-25)"/>
          </g>
          <g id="Group_110" data-name="Group 110" transform="translate(1665.809 0.073)">
            <rect id="Rectangle_110" data-name="Rectangle 110" width="2354.414" height="0.111" transform="translate(0 1665.273) rotate(-45)" fill="url(#linear-gradient-25)"/>
          </g>
          <g id="Group_111" data-name="Group 111" transform="translate(1681.292 0.014)">
            <rect id="Rectangle_111" data-name="Rectangle 111" width="2354.414" height="0.111" transform="translate(0 1665.39) rotate(-45.004)" fill="url(#linear-gradient-25)"/>
          </g>
          <g id="Group_112" data-name="Group 112" transform="translate(1696.657 0.073)">
            <rect id="Rectangle_112" data-name="Rectangle 112" width="2354.414" height="0.111" transform="translate(0 1665.273) rotate(-45)" fill="url(#linear-gradient-25)"/>
          </g>
          <g id="Group_113" data-name="Group 113" transform="translate(1712.141 0.014)">
            <rect id="Rectangle_113" data-name="Rectangle 113" width="2354.414" height="0.111" transform="translate(0 1665.39) rotate(-45.004)" fill="url(#linear-gradient-25)"/>
          </g>
          <g id="Group_114" data-name="Group 114" transform="translate(1727.506 0.073)">
            <rect id="Rectangle_114" data-name="Rectangle 114" width="2354.414" height="0.111" transform="translate(0 1665.273) rotate(-45)" fill="url(#linear-gradient-25)"/>
          </g>
          <g id="Group_115" data-name="Group 115" transform="translate(1742.989 0.014)">
            <rect id="Rectangle_115" data-name="Rectangle 115" width="2354.414" height="0.111" transform="translate(0 1665.391) rotate(-45.004)" fill="url(#linear-gradient-25)"/>
          </g>
          <g id="Group_116" data-name="Group 116" transform="translate(1758.354 0.073)">
            <rect id="Rectangle_116" data-name="Rectangle 116" width="2354.414" height="0.111" transform="translate(0 1665.273) rotate(-45)" fill="url(#linear-gradient-25)"/>
          </g>
          <g id="Group_117" data-name="Group 117" transform="translate(1773.837 0.014)">
            <rect id="Rectangle_117" data-name="Rectangle 117" width="2354.414" height="0.111" transform="translate(0 1665.39) rotate(-45.004)" fill="url(#linear-gradient-25)"/>
          </g>
          <g id="Group_118" data-name="Group 118" transform="translate(1789.203 0.073)">
            <rect id="Rectangle_118" data-name="Rectangle 118" width="2354.413" height="0.111" transform="translate(0 1665.272) rotate(-45)" fill="url(#linear-gradient-25)"/>
          </g>
          <g id="Group_119" data-name="Group 119" transform="translate(1804.678 0.022)">
            <rect id="Rectangle_119" data-name="Rectangle 119" width="2354.414" height="0.111" transform="translate(0 1665.375) rotate(-45.004)" fill="url(#linear-gradient-25)"/>
          </g>
          <g id="Group_120" data-name="Group 120" transform="translate(1820.051 0.073)">
            <rect id="Rectangle_120" data-name="Rectangle 120" width="2354.414" height="0.111" transform="translate(0 1665.273) rotate(-45)" fill="url(#linear-gradient-25)"/>
          </g>
          <g id="Group_121" data-name="Group 121" transform="translate(1835.534 0.014)">
            <rect id="Rectangle_121" data-name="Rectangle 121" width="2354.414" height="0.111" transform="translate(0 1665.39) rotate(-45.004)" fill="url(#linear-gradient-25)"/>
          </g>
          <g id="Group_122" data-name="Group 122" transform="translate(1850.899 0.073)">
            <rect id="Rectangle_122" data-name="Rectangle 122" width="2354.414" height="0.111" transform="translate(0 1665.273) rotate(-45)" fill="url(#linear-gradient-25)"/>
          </g>
          <g id="Group_123" data-name="Group 123" transform="translate(1866.323 0.073)">
            <rect id="Rectangle_123" data-name="Rectangle 123" width="2354.414" height="0.111" transform="translate(0 1665.273) rotate(-45)" fill="url(#linear-gradient-25)"/>
          </g>
          <g id="Group_124" data-name="Group 124" transform="translate(1881.747 0.073)">
            <rect id="Rectangle_124" data-name="Rectangle 124" width="2354.414" height="0.111" transform="translate(0 1665.273) rotate(-45)" fill="url(#linear-gradient-25)"/>
          </g>
          <g id="Group_125" data-name="Group 125" transform="translate(1897.172 0.073)">
            <rect id="Rectangle_125" data-name="Rectangle 125" width="2354.413" height="0.111" transform="translate(0 1665.272) rotate(-45)" fill="url(#linear-gradient-25)"/>
          </g>
          <g id="Group_126" data-name="Group 126" transform="translate(1912.596 0.073)">
            <rect id="Rectangle_126" data-name="Rectangle 126" width="2354.414" height="0.111" transform="translate(0 1665.273) rotate(-45)" fill="url(#linear-gradient-25)"/>
          </g>
          <g id="Group_127" data-name="Group 127" transform="translate(1928.02 0.073)">
            <rect id="Rectangle_127" data-name="Rectangle 127" width="2354.414" height="0.111" transform="translate(0 1665.273) rotate(-45)" fill="url(#linear-gradient-25)"/>
          </g>
          <g id="Group_128" data-name="Group 128" transform="translate(1943.444 0.073)">
            <rect id="Rectangle_128" data-name="Rectangle 128" width="2354.414" height="0.111" transform="translate(0 1665.273) rotate(-45)" fill="url(#linear-gradient-25)"/>
          </g>
          <g id="Group_129" data-name="Group 129" transform="translate(1958.868 0.073)">
            <rect id="Rectangle_129" data-name="Rectangle 129" width="2354.414" height="0.111" transform="translate(0 1665.273) rotate(-45)" fill="url(#linear-gradient-25)"/>
          </g>
          <g id="Group_130" data-name="Group 130" transform="translate(1974.292 0.073)">
            <rect id="Rectangle_130" data-name="Rectangle 130" width="2354.414" height="0.111" transform="translate(0 1665.273) rotate(-45)" fill="url(#linear-gradient-25)"/>
          </g>
          <g id="Group_131" data-name="Group 131" transform="translate(1989.717 0.073)">
            <rect id="Rectangle_131" data-name="Rectangle 131" width="2354.414" height="0.111" transform="translate(0 1665.273) rotate(-45)" fill="url(#linear-gradient-25)"/>
          </g>
          <g id="Group_132" data-name="Group 132" transform="translate(2005.199 0.014)">
            <rect id="Rectangle_132" data-name="Rectangle 132" width="2354.414" height="0.111" transform="translate(0 1665.39) rotate(-45.004)" fill="url(#linear-gradient-25)"/>
          </g>
          <g id="Group_133" data-name="Group 133" transform="translate(2020.565 0.073)">
            <rect id="Rectangle_133" data-name="Rectangle 133" width="2354.414" height="0.111" transform="translate(0 1665.273) rotate(-45)" fill="url(#linear-gradient-25)"/>
          </g>
          <g id="Group_134" data-name="Group 134" transform="translate(2036.048 0.014)">
            <rect id="Rectangle_134" data-name="Rectangle 134" width="2354.414" height="0.111" transform="translate(0 1665.39) rotate(-45.004)" fill="url(#linear-gradient-25)"/>
          </g>
          <g id="Group_135" data-name="Group 135" transform="translate(2051.413 0.073)">
            <rect id="Rectangle_135" data-name="Rectangle 135" width="2354.414" height="0.111" transform="translate(0 1665.273) rotate(-45)" fill="url(#linear-gradient-25)"/>
          </g>
          <g id="Group_136" data-name="Group 136" transform="translate(2066.896 0.014)">
            <rect id="Rectangle_136" data-name="Rectangle 136" width="2354.414" height="0.111" transform="translate(0 1665.391) rotate(-45.004)" fill="url(#linear-gradient-25)"/>
          </g>
          <g id="Group_137" data-name="Group 137" transform="translate(2082.261 0.073)">
            <rect id="Rectangle_137" data-name="Rectangle 137" width="2354.414" height="0.111" transform="translate(0 1665.273) rotate(-45)" fill="url(#linear-gradient-25)"/>
          </g>
          <g id="Group_138" data-name="Group 138" transform="translate(2097.759)">
            <rect id="Rectangle_138" data-name="Rectangle 138" width="2354.414" height="0.111" transform="translate(0 1665.419) rotate(-45.005)" fill="url(#linear-gradient-25)"/>
          </g>
          <g id="Group_139" data-name="Group 139" transform="translate(2113.11 0.073)">
            <rect id="Rectangle_139" data-name="Rectangle 139" width="2354.413" height="0.111" transform="translate(0 1665.272) rotate(-45)" fill="url(#linear-gradient-25)"/>
          </g>
          <g id="Group_140" data-name="Group 140" transform="translate(2128.593 0.014)">
            <rect id="Rectangle_140" data-name="Rectangle 140" width="2354.414" height="0.111" transform="translate(0 1665.391) rotate(-45.004)" fill="url(#linear-gradient-25)"/>
          </g>
          <g id="Group_141" data-name="Group 141" transform="translate(2143.958 0.073)">
            <rect id="Rectangle_141" data-name="Rectangle 141" width="2354.414" height="0.111" transform="translate(0 1665.273) rotate(-45)" fill="url(#linear-gradient-25)"/>
          </g>
          <g id="Group_142" data-name="Group 142" transform="translate(2159.441 0.014)">
            <rect id="Rectangle_142" data-name="Rectangle 142" width="2354.414" height="0.111" transform="translate(0 1665.39) rotate(-45.004)" fill="url(#linear-gradient-25)"/>
          </g>
          <g id="Group_143" data-name="Group 143" transform="translate(2174.806 0.073)">
            <rect id="Rectangle_143" data-name="Rectangle 143" width="2354.414" height="0.111" transform="translate(0 1665.273) rotate(-45)" fill="url(#linear-gradient-25)"/>
          </g>
          <g id="Group_144" data-name="Group 144" transform="translate(2190.29 0.014)">
            <rect id="Rectangle_144" data-name="Rectangle 144" width="2354.414" height="0.111" transform="translate(0 1665.39) rotate(-45.004)" fill="url(#linear-gradient-25)"/>
          </g>
          <g id="Group_145" data-name="Group 145" transform="translate(2205.655 0.073)">
            <rect id="Rectangle_145" data-name="Rectangle 145" width="2354.414" height="0.111" transform="translate(0 1665.273) rotate(-45)" fill="url(#linear-gradient-25)"/>
          </g>
          <g id="Group_146" data-name="Group 146" transform="translate(2221.138 0.014)">
            <rect id="Rectangle_146" data-name="Rectangle 146" width="2354.414" height="0.111" transform="translate(0 1665.39) rotate(-45.004)" fill="url(#linear-gradient-25)"/>
          </g>
          <g id="Group_147" data-name="Group 147" transform="translate(2236.503 0.073)">
            <rect id="Rectangle_147" data-name="Rectangle 147" width="2354.414" height="0.111" transform="translate(0 1665.273) rotate(-45)" fill="url(#linear-gradient-25)"/>
          </g>
          <g id="Group_148" data-name="Group 148" transform="translate(2251.927 0.073)">
            <rect id="Rectangle_148" data-name="Rectangle 148" width="2354.414" height="0.111" transform="translate(0 1665.273) rotate(-45)" fill="url(#linear-gradient-25)"/>
          </g>
          <g id="Group_149" data-name="Group 149" transform="translate(2267.351 0.073)">
            <rect id="Rectangle_149" data-name="Rectangle 149" width="2354.414" height="0.111" transform="translate(0 1665.273) rotate(-45)" fill="url(#linear-gradient-25)"/>
          </g>
          <g id="Group_150" data-name="Group 150" transform="translate(2282.775 0.073)">
            <rect id="Rectangle_150" data-name="Rectangle 150" width="2354.414" height="0.111" transform="translate(0 1665.273) rotate(-45)" fill="url(#linear-gradient-25)"/>
          </g>
          <g id="Group_151" data-name="Group 151" transform="translate(2298.2 0.073)">
            <rect id="Rectangle_151" data-name="Rectangle 151" width="2354.414" height="0.111" transform="translate(0 1665.273) rotate(-45)" fill="url(#linear-gradient-25)"/>
          </g>
          <g id="Group_152" data-name="Group 152" transform="translate(2313.624 0.073)">
            <rect id="Rectangle_152" data-name="Rectangle 152" width="2354.414" height="0.111" transform="translate(0 1665.273) rotate(-45)" fill="url(#linear-gradient-25)"/>
          </g>
          <g id="Group_153" data-name="Group 153" transform="translate(2329.048 0.073)">
            <rect id="Rectangle_153" data-name="Rectangle 153" width="2354.413" height="0.111" transform="translate(0 1665.272) rotate(-45)" fill="url(#linear-gradient-25)"/>
          </g>
          <g id="Group_154" data-name="Group 154" transform="translate(2344.472 0.073)">
            <rect id="Rectangle_154" data-name="Rectangle 154" width="2354.414" height="0.111" transform="translate(0 1665.273) rotate(-45)" fill="url(#linear-gradient-25)"/>
          </g>
          <g id="Group_155" data-name="Group 155" transform="translate(2359.896 0.073)">
            <rect id="Rectangle_155" data-name="Rectangle 155" width="2354.414" height="0.111" transform="translate(0 1665.273) rotate(-45)" fill="url(#linear-gradient-25)"/>
          </g>
          <g id="Group_156" data-name="Group 156" transform="translate(2375.32 0.073)">
            <rect id="Rectangle_156" data-name="Rectangle 156" width="2354.413" height="0.111" transform="translate(0 1665.272) rotate(-45)" fill="url(#linear-gradient-25)"/>
          </g>
          <g id="Group_157" data-name="Group 157" transform="translate(2390.745 0.073)">
            <rect id="Rectangle_157" data-name="Rectangle 157" width="2354.414" height="0.111" transform="translate(0 1665.273) rotate(-45)" fill="url(#linear-gradient-25)"/>
          </g>
          <g id="Group_158" data-name="Group 158" transform="translate(2406.169 0.073)">
            <rect id="Rectangle_158" data-name="Rectangle 158" width="2354.414" height="0.111" transform="translate(0 1665.273) rotate(-45)" fill="url(#linear-gradient-25)"/>
          </g>
          <g id="Group_159" data-name="Group 159" transform="translate(2421.652 0.014)">
            <rect id="Rectangle_159" data-name="Rectangle 159" width="2354.414" height="0.111" transform="translate(0 1665.39) rotate(-45.004)" fill="url(#linear-gradient-25)"/>
          </g>
          <g id="Group_160" data-name="Group 160" transform="translate(2437.017 0.073)">
            <rect id="Rectangle_160" data-name="Rectangle 160" width="2354.413" height="0.111" transform="translate(0 1665.272) rotate(-45)" fill="url(#linear-gradient-25)"/>
          </g>
          <g id="Group_161" data-name="Group 161" transform="translate(2452.5 0.014)">
            <rect id="Rectangle_161" data-name="Rectangle 161" width="2354.414" height="0.111" transform="translate(0 1665.391) rotate(-45.004)" fill="url(#linear-gradient-25)"/>
          </g>
          <g id="Group_162" data-name="Group 162" transform="translate(2467.865 0.073)">
            <rect id="Rectangle_162" data-name="Rectangle 162" width="2354.414" height="0.111" transform="translate(0 1665.273) rotate(-45)" fill="url(#linear-gradient-25)"/>
          </g>
          <g id="Group_163" data-name="Group 163" transform="translate(2483.348 0.014)">
            <rect id="Rectangle_163" data-name="Rectangle 163" width="2354.414" height="0.111" transform="translate(0 1665.39) rotate(-45.004)" fill="url(#linear-gradient-25)"/>
          </g>
          <g id="Group_164" data-name="Group 164" transform="translate(2498.714 0.073)">
            <rect id="Rectangle_164" data-name="Rectangle 164" width="2354.414" height="0.111" transform="translate(0 1665.273) rotate(-45)" fill="url(#linear-gradient-25)"/>
          </g>
          <g id="Group_165" data-name="Group 165" transform="translate(2514.197 0.014)">
            <rect id="Rectangle_165" data-name="Rectangle 165" width="2354.414" height="0.111" transform="translate(0 1665.39) rotate(-45.004)" fill="url(#linear-gradient-25)"/>
          </g>
          <g id="Group_166" data-name="Group 166" transform="translate(2529.562 0.073)">
            <rect id="Rectangle_166" data-name="Rectangle 166" width="2354.414" height="0.111" transform="translate(0 1665.273) rotate(-45)" fill="url(#linear-gradient-25)"/>
          </g>
          <g id="Group_167" data-name="Group 167" transform="translate(2545.045 0.014)">
            <rect id="Rectangle_167" data-name="Rectangle 167" width="2354.414" height="0.111" transform="translate(0 1665.39) rotate(-45.004)" fill="url(#linear-gradient-25)"/>
          </g>
          <g id="Group_168" data-name="Group 168" transform="translate(2560.41 0.073)">
            <rect id="Rectangle_168" data-name="Rectangle 168" width="2354.414" height="0.111" transform="translate(0 1665.273) rotate(-45)" fill="url(#linear-gradient-25)"/>
          </g>
          <g id="Group_169" data-name="Group 169" transform="translate(2575.894 0.014)">
            <rect id="Rectangle_169" data-name="Rectangle 169" width="2354.414" height="0.111" transform="translate(0 1665.39) rotate(-45.004)" fill="url(#linear-gradient-25)"/>
          </g>
          <g id="Group_170" data-name="Group 170" transform="translate(2591.259 0.073)">
            <rect id="Rectangle_170" data-name="Rectangle 170" width="2354.413" height="0.111" transform="translate(0 1665.272) rotate(-45)" fill="url(#linear-gradient-25)"/>
          </g>
          <g id="Group_171" data-name="Group 171" transform="translate(2606.742 0.014)">
            <rect id="Rectangle_171" data-name="Rectangle 171" width="2354.414" height="0.111" transform="translate(0 1665.391) rotate(-45.004)" fill="url(#linear-gradient-25)"/>
          </g>
          <g id="Group_172" data-name="Group 172" transform="translate(2622.107 0.073)">
            <rect id="Rectangle_172" data-name="Rectangle 172" width="2354.414" height="0.111" transform="translate(0 1665.273) rotate(-45)" fill="url(#linear-gradient-25)"/>
          </g>
          <g id="Group_173" data-name="Group 173" transform="translate(2637.59 0.014)">
            <rect id="Rectangle_173" data-name="Rectangle 173" width="2354.414" height="0.111" transform="translate(0 1665.39) rotate(-45.004)" fill="url(#linear-gradient-25)"/>
          </g>
          <g id="Group_174" data-name="Group 174" transform="translate(2652.955 0.073)">
            <rect id="Rectangle_174" data-name="Rectangle 174" width="2354.413" height="0.111" transform="translate(0 1665.272) rotate(-45)" fill="url(#linear-gradient-25)"/>
          </g>
          <g id="Group_175" data-name="Group 175" transform="translate(2668.438 0.014)">
            <rect id="Rectangle_175" data-name="Rectangle 175" width="2354.414" height="0.111" transform="translate(0 1665.391) rotate(-45.004)" fill="url(#linear-gradient-25)"/>
          </g>
          <g id="Group_176" data-name="Group 176" transform="translate(2683.804 0.073)">
            <rect id="Rectangle_176" data-name="Rectangle 176" width="2354.414" height="0.111" transform="translate(0 1665.273) rotate(-45)" fill="url(#linear-gradient-25)"/>
          </g>
          <g id="Group_177" data-name="Group 177" transform="translate(2699.228 0.073)">
            <rect id="Rectangle_177" data-name="Rectangle 177" width="2354.414" height="0.111" transform="translate(0 1665.273) rotate(-45)" fill="url(#linear-gradient-25)"/>
          </g>
          <g id="Group_178" data-name="Group 178" transform="translate(2714.711 0.014)">
            <rect id="Rectangle_178" data-name="Rectangle 178" width="2354.414" height="0.111" transform="translate(0 1665.39) rotate(-45.004)" fill="url(#linear-gradient-25)"/>
          </g>
          <g id="Group_179" data-name="Group 179" transform="translate(2730.076 0.073)">
            <rect id="Rectangle_179" data-name="Rectangle 179" width="2354.414" height="0.111" transform="translate(0 1665.273) rotate(-45)" fill="url(#linear-gradient-25)"/>
          </g>
          <g id="Group_180" data-name="Group 180" transform="translate(2745.5 0.073)">
            <rect id="Rectangle_180" data-name="Rectangle 180" width="2354.414" height="0.111" transform="translate(0 1665.273) rotate(-45)" fill="url(#linear-gradient-25)"/>
          </g>
          <g id="Group_181" data-name="Group 181" transform="translate(2760.924 0.073)">
            <rect id="Rectangle_181" data-name="Rectangle 181" width="2354.414" height="0.111" transform="translate(0 1665.273) rotate(-45)" fill="url(#linear-gradient-25)"/>
          </g>
          <g id="Group_182" data-name="Group 182" transform="translate(2776.408 0.014)">
            <rect id="Rectangle_182" data-name="Rectangle 182" width="2354.414" height="0.111" transform="translate(0 1665.39) rotate(-45.004)" fill="url(#linear-gradient-25)"/>
          </g>
          <g id="Group_183" data-name="Group 183" transform="translate(2791.773 0.073)">
            <rect id="Rectangle_183" data-name="Rectangle 183" width="2354.414" height="0.111" transform="translate(0 1665.273) rotate(-45)" fill="url(#linear-gradient-25)"/>
          </g>
          <g id="Group_184" data-name="Group 184" transform="translate(2807.197 0.073)">
            <rect id="Rectangle_184" data-name="Rectangle 184" width="2354.414" height="0.111" transform="translate(0 1665.273) rotate(-45)" fill="url(#linear-gradient-25)"/>
          </g>
          <g id="Group_185" data-name="Group 185" transform="translate(2822.622 0.073)">
            <rect id="Rectangle_185" data-name="Rectangle 185" width="2354.414" height="0.111" transform="translate(0 1665.273) rotate(-45)" fill="url(#linear-gradient-25)"/>
          </g>
          <g id="Group_186" data-name="Group 186" transform="translate(2838.104 0.014)">
            <rect id="Rectangle_186" data-name="Rectangle 186" width="2354.414" height="0.111" transform="translate(0 1665.39) rotate(-45.004)" fill="url(#linear-gradient-25)"/>
          </g>
          <g id="Group_187" data-name="Group 187" transform="translate(2853.469 0.073)">
            <rect id="Rectangle_187" data-name="Rectangle 187" width="2354.414" height="0.111" transform="translate(0 1665.273) rotate(-45)" fill="url(#linear-gradient-25)"/>
          </g>
          <g id="Group_188" data-name="Group 188" transform="translate(2868.952 0.014)">
            <rect id="Rectangle_188" data-name="Rectangle 188" width="2354.414" height="0.111" transform="translate(0 1665.39) rotate(-45.004)" fill="url(#linear-gradient-25)"/>
          </g>
          <g id="Group_189" data-name="Group 189" transform="translate(2884.318 0.073)">
            <rect id="Rectangle_189" data-name="Rectangle 189" width="2354.414" height="0.111" transform="translate(0 1665.273) rotate(-45)" fill="url(#linear-gradient-25)"/>
          </g>
          <g id="Group_190" data-name="Group 190" transform="translate(2899.801 0.014)">
            <rect id="Rectangle_190" data-name="Rectangle 190" width="2354.414" height="0.111" transform="translate(0 1665.39) rotate(-45.004)" fill="url(#linear-gradient-25)"/>
          </g>
          <g id="Group_191" data-name="Group 191" transform="translate(2915.166 0.073)">
            <rect id="Rectangle_191" data-name="Rectangle 191" width="2354.414" height="0.111" transform="translate(0 1665.273) rotate(-45)" fill="url(#linear-gradient-25)"/>
          </g>
          <g id="Group_192" data-name="Group 192" transform="translate(2930.649 0.014)">
            <rect id="Rectangle_192" data-name="Rectangle 192" width="2354.414" height="0.111" transform="translate(0 1665.39) rotate(-45.004)" fill="url(#linear-gradient-25)"/>
          </g>
          <g id="Group_193" data-name="Group 193" transform="translate(2946.014 0.073)">
            <rect id="Rectangle_193" data-name="Rectangle 193" width="2354.414" height="0.111" transform="translate(0 1665.273) rotate(-45)" fill="url(#linear-gradient-25)"/>
          </g>
          <g id="Group_194" data-name="Group 194" transform="translate(2961.497 0.014)">
            <rect id="Rectangle_194" data-name="Rectangle 194" width="2354.414" height="0.111" transform="translate(0 1665.39) rotate(-45.004)" fill="url(#linear-gradient-25)"/>
          </g>
          <g id="Group_195" data-name="Group 195" transform="translate(2976.862 0.073)">
            <rect id="Rectangle_195" data-name="Rectangle 195" width="2354.414" height="0.111" transform="translate(0 1665.273) rotate(-45)" fill="url(#linear-gradient-25)"/>
          </g>
          <g id="Group_196" data-name="Group 196" transform="translate(2992.287 0.073)">
            <rect id="Rectangle_196" data-name="Rectangle 196" width="2354.414" height="0.111" transform="translate(0 1665.273) rotate(-45)" fill="url(#linear-gradient-25)"/>
          </g>
          <g id="Group_197" data-name="Group 197" transform="translate(3007.711 0.073)">
            <rect id="Rectangle_197" data-name="Rectangle 197" width="2354.414" height="0.111" transform="translate(0 1665.273) rotate(-45)" fill="url(#linear-gradient-25)"/>
          </g>
          <g id="Group_198" data-name="Group 198" transform="translate(3023.194 0.014)">
            <rect id="Rectangle_198" data-name="Rectangle 198" width="2354.414" height="0.111" transform="translate(0 1665.39) rotate(-45.004)" fill="url(#linear-gradient-25)"/>
          </g>
          <g id="Group_199" data-name="Group 199" transform="translate(3038.56 0.073)">
            <rect id="Rectangle_199" data-name="Rectangle 199" width="2354.414" height="0.111" transform="translate(0 1665.273) rotate(-45)" fill="url(#linear-gradient-25)"/>
          </g>
          <g id="Group_200" data-name="Group 200" transform="translate(3053.983 0.073)">
            <rect id="Rectangle_200" data-name="Rectangle 200" width="2354.414" height="0.111" transform="translate(0 1665.273) rotate(-45)" fill="url(#linear-gradient-25)"/>
          </g>
          <g id="Group_201" data-name="Group 201" transform="translate(3069.407 0.073)">
            <rect id="Rectangle_201" data-name="Rectangle 201" width="2354.414" height="0.111" transform="translate(0 1665.273) rotate(-45)" fill="url(#linear-gradient-25)"/>
          </g>
          <g id="Group_202" data-name="Group 202" transform="translate(3084.89 0.014)">
            <rect id="Rectangle_202" data-name="Rectangle 202" width="2354.414" height="0.111" transform="translate(0 1665.39) rotate(-45.004)" fill="url(#linear-gradient-25)"/>
          </g>
          <g id="Group_203" data-name="Group 203" transform="translate(3100.256 0.073)">
            <rect id="Rectangle_203" data-name="Rectangle 203" width="2354.414" height="0.111" transform="translate(0 1665.273) rotate(-45)" fill="url(#linear-gradient-25)"/>
          </g>
        </g>
      </g>
    </g>
  </g>
  <rect id="Rectangle_1" data-name="Rectangle 1" width="1920" height="1080" fill="#1b1380" opacity="0.534"/>
</svg>
