<svg xmlns="http://www.w3.org/2000/svg" xmlns:xlink="http://www.w3.org/1999/xlink" width="1989.104" height="1118.325" viewBox="0 0 1989.104 1118.325">
  <defs>
    <clipPath id="clip-path">
      <rect id="Rectangle_204" data-name="Rectangle 204" width="1989.104" height="1118.325" fill="none"/>
    </clipPath>
    <linearGradient id="linear-gradient" x1="0.5" x2="0.5" y2="1" gradientUnits="objectBoundingBox">
      <stop offset="0" stop-color="#660091"/>
      <stop offset="1" stop-color="#29abe2"/>
    </linearGradient>
    <linearGradient id="linear-gradient-8" x1="-0.162" y1="0.666" x2="1.598" y2="0.336" gradientUnits="objectBoundingBox">
      <stop offset="0" stop-color="#29abe2"/>
      <stop offset="1" stop-color="#660091"/>
    </linearGradient>
    <linearGradient id="linear-gradient-9" x1="-0.31" y1="0.686" x2="1.555" y2="0.324" xlink:href="#linear-gradient-8"/>
    <linearGradient id="linear-gradient-10" x1="-0.109" y1="0.664" x2="1.44" y2="0.321" xlink:href="#linear-gradient-8"/>
    <linearGradient id="linear-gradient-11" x1="-0.01" y1="0.679" x2="1.208" y2="0.37" xlink:href="#linear-gradient-8"/>
    <linearGradient id="linear-gradient-17" x1="0.048" y1="0.67" x2="1.086" y2="0.405" xlink:href="#linear-gradient-8"/>
    <linearGradient id="linear-gradient-18" x1="0.017" y1="0.685" x2="1.066" y2="0.398" xlink:href="#linear-gradient-8"/>
    <linearGradient id="linear-gradient-25" x1="0.146" y1="0.5" x2="0.854" y2="0.5" xlink:href="#linear-gradient"/>
  </defs>
  <g id="Group_207" data-name="Group 207" transform="translate(-951.427 -3377)">
    <g id="Group_206" data-name="Group 206" transform="translate(951.427 3377)" clip-path="url(#clip-path)">
      <g id="Group_205" data-name="Group 205" transform="translate(-1473.779 -303.325)">
        <g id="Group_1" data-name="Group 1" transform="translate(1473.476 303.502)">
          <path id="Path_1" data-name="Path 1" d="M1819.583,3401.959c5.347,34.946,33.656,62.138,64.227,79.891,46.955,27.268,101.382,38.453,151.063,60.363s97.982,59.98,107.672,113.406c6,33.059-4.212,67.93-24.006,95.08-8.98,12.317-20.339,24.395-21.5,39.594-1.7,22.228,19.946,40.069,41.724,44.837s44.45.75,66.7,2.059c34.676,2.04,67.128,16.861,98.841,31.033s64.708,28.179,99.442,28.424,71.933-16.709,85.133-48.839c10.739-26.14,3.739-56.248-7.705-82.086s-27.23-49.93-34.875-77.136c-17.052-60.692,14.1-131.329,70.415-159.664,17.8-8.959,37.813-14.2,53.194-26.872,33.577-27.668,32.8-80.331,16.732-120.762q-.8-2.028-1.652-4.036H2413.8q4.418,5.245,9.175,10.2c23.06,23.859,53.911,46.264,55.93,79.385,2.5,41.021-39.553,68.08-68.013,97.727-39.75,41.408-56.565,109.216-25.663,157.586,11.011,17.234,27.067,30.877,37.5,48.468s13.71,42.4-.626,56.981c-13.1,13.326-35.427,12.319-52.35,4.4s-30.612-21.3-46.373-31.337a133.381,133.381,0,0,0-55.366-19.822c-22.447-2.72-48.617-1.052-63.557-18.023-21.844-24.812.052-62.107,6.17-94.593,6.449-34.249-6.657-69.328-24.517-99.255-42.77-71.666-115.021-125.121-196.063-145.058-22.853-5.622-46.595-8.781-67.924-18.727-13.331-6.217-25.825-15.856-33.91-27.926h-69.325A117.034,117.034,0,0,0,1819.583,3401.959Z" transform="translate(-1202.941 -3377.25)" fill="url(#linear-gradient)"/>
          <path id="Path_2" data-name="Path 2" d="M1950.626,3405.176c21.329,9.947,45.071,13.1,67.924,18.727,81.042,19.937,153.293,73.392,196.063,145.058,17.86,29.927,30.966,65.006,24.518,99.255-6.118,32.486-28.014,69.781-6.17,94.593,14.94,16.97,41.11,15.3,63.557,18.023a133.381,133.381,0,0,1,55.366,19.822c15.761,10.035,29.45,23.417,46.373,31.337s39.252,8.927,52.35-4.4c14.336-14.584,11.058-39.39.626-56.981s-26.488-31.234-37.5-48.468c-30.9-48.37-14.087-116.178,25.663-157.586,28.46-29.647,70.513-56.707,68.013-97.727-2.02-33.121-32.87-55.525-55.93-79.385q-4.77-4.935-9.175-10.2H2334.109c13.618,15.085,27.614,29.87,39.3,46.468,19.7,28,32.484,64.439,20.5,96.508-12.426,33.241-48.429,54.251-57.76,88.49-9.788,35.914,12.893,71.722,21,108.052,3.746,16.779-.133,40.118-17.191,42.255-4.163.522-8.377-.476-12.325-1.9-35.76-12.866-49.951-56.624-49.169-94.621s11.528-76.123,5-113.562c-7.782-44.61-39.726-82.2-78.01-106.382s-82.657-36.7-126.7-47.239c-17.978-4.3-37.434-9.487-53.841-18.073H1916.716C1924.8,3389.32,1937.3,3398.959,1950.626,3405.176Z" transform="translate(-1231.447 -3377.25)" fill="url(#linear-gradient)"/>
          <path id="Path_3" data-name="Path 3" d="M1063.95,3713.947c56.976,25.84,107.044,64.553,161.485,95.377,11.2,6.34,22.879,12.448,35.617,14.278,45.094,6.48,78.1-39.369,117.31-62.567,29.271-17.318,64.407-22.244,98.4-21.238,17.682.523,37.409,1.909,50.872-9.565,18.992-16.186,12.26-49.264-6.7-65.489s-45.135-20.275-69.8-24.073-50.9-8.776-68.8-26.154c-33.622-32.632-21.1-89.149-37.934-132.873-13.471-34.98-45.358-59.732-78.951-76.363-21.938-10.86-45.091-19.025-67.865-28.029h-159.5a171.005,171.005,0,0,0,62.457,41.856c52.24,19.865,118.816,17.577,151.87,62.644,34.292,46.755,14.917,125.564,63.089,157.834,18.946,12.692,43.4,13.674,64,23.471s36.946,37.511,22.022,54.754c-14.3,16.522-40.619,7.259-61.815,1.951a130.065,130.065,0,0,0-90.78,10.726c-10.65,5.552-20.754,12.687-32.478,15.294-25.1,5.582-49.336-10.656-69.941-26.036-18.566-13.859-37.176-27.754-54.108-43.569-13.449-12.563-25.922-26.4-41.3-36.517-29.228-19.23-64.65-22.609-100.1-18.966v66.917C989.384,3687.343,1028.692,3697.957,1063.95,3713.947Z" transform="translate(-951 -3377.25)" fill="url(#linear-gradient)"/>
          <path id="Path_4" data-name="Path 4" d="M1129.168,3607.679c14.812,7.07,29.834,14.277,42.135,25.142,5.334,4.711,10.83,10.4,17.94,10.7,12.436.531,18.832-17.052,12.719-27.895s-18.931-15.731-30.882-19.211c-38.618-11.241-83.03-18.95-105.942-52.007-7.626-11-12.3-24.269-22.176-33.3-7.76-7.094-18-10.842-28.215-13.327-20.8-5.061-42.274-5.534-63.747-6.187v39.357c20.506,2.044,41.007,11.254,60,20.318Z" transform="translate(-951 -3410.457)" fill="url(#linear-gradient)"/>
          <path id="Path_5" data-name="Path 5" d="M1051.1,3639.658c15.374,10.116,27.847,23.954,41.3,36.517,16.932,15.815,35.542,29.709,54.108,43.569,20.6,15.38,44.842,31.618,69.941,26.036,11.724-2.607,21.829-9.741,32.478-15.294a130.065,130.065,0,0,1,90.78-10.726c21.2,5.308,47.516,14.571,61.815-1.951,14.924-17.243-1.429-44.957-22.022-54.754s-45.051-10.78-64-23.471c-48.172-32.27-28.8-111.079-63.089-157.834-33.054-45.067-99.63-42.779-151.87-62.644a171.005,171.005,0,0,1-62.457-41.856H951v44.108c39.789,9.875,86.687,2.9,116.969,30.432,11.8,10.73,19.256,25.461,30.439,36.836,27.158,27.626,70.464,30.694,103.7,50.6,44.933,26.919,66.386,87.4,48.46,136.615-2.973,8.162-7.493,16.591-15.448,20.081-13.361,5.863-27.81-4.87-38.217-15.1-39.083-38.4-75.326-81.134-122.869-108.367-36.876-21.123-83.344-30.906-123.031-19.215v67.446C986.455,3617.049,1021.877,3620.428,1051.1,3639.658Z" transform="translate(-951 -3377.25)" fill="url(#linear-gradient)"/>
          <path id="Path_6" data-name="Path 6" d="M1074.031,3590.514c47.543,27.233,83.786,69.969,122.869,108.367,10.408,10.226,24.856,20.958,38.217,15.1,7.955-3.491,12.475-11.919,15.448-20.081,17.927-49.216-3.527-109.7-48.46-136.615-33.233-19.908-76.539-22.977-103.7-50.6-11.183-11.375-18.636-26.105-30.439-36.836-30.282-27.531-77.18-20.557-116.969-30.432v37.032c21.472.653,42.942,1.125,63.747,6.187,10.216,2.485,20.455,6.233,28.215,13.327,9.88,9.033,14.55,22.3,22.176,33.3,22.912,33.057,67.324,40.766,105.942,52.007,11.951,3.479,24.77,8.369,30.882,19.211s-.284,28.426-12.719,27.895c-7.11-.3-12.606-5.993-17.94-10.7-12.3-10.864-27.324-18.072-42.135-25.142L1011,3536.118c-18.99-9.064-39.49-18.274-60-20.318v55.5C990.686,3559.607,1037.154,3569.391,1074.031,3590.514Z" transform="translate(-951 -3395.301)" fill="url(#linear-gradient)"/>
          <path id="Path_7" data-name="Path 7" d="M2368.666,3442.562q13.532,26.134,28.5,51.493c5.038,8.538,10.421,17.252,18.515,22.976s19.65,7.728,27.862,2.174c5.745-3.884,8.856-10.658,10.574-17.376a64.273,64.273,0,0,0-13.98-57.592c-17.98-20.227-47.556-27.569-64.409-48.743a69.111,69.111,0,0,1-10.247-18.244h-40.516C2343.747,3394.234,2356.686,3419.427,2368.666,3442.562Z" transform="translate(-1350.003 -3377.25)" fill="url(#linear-gradient)"/>
          <path id="Path_8" data-name="Path 8" d="M3580.968,3454.683c-6.526,35.22-.264,71.358,4.014,106.921s6.306,72.987-7.887,105.874c-16.245,37.644-51.279,63.774-72.587,98.8-15.03,24.709-22.775,53.081-35.048,79.269a249.809,249.809,0,0,1-43.994,64.851c-8.819,9.393-18.978,19.387-19.713,32.249-.842,14.724,11.4,27.194,24.7,33.575s28.238,8.752,41.509,15.186c29.78,14.436,47.251,50.55,40.084,82.86-4.757,21.45-17.2,48.349.2,61.771,11.617,8.963,29.643,2.954,38.706-8.585s11.632-26.711,14.385-41.123c10.991-57.505,36.124-120.494,88.234-144.062v-90.536c-20.923,4.534-40.863,10.8-54.855,25.675-33.6,35.726-14.3,101.259-48.96,135.954-3.058,3.061-6.742,5.891-11.05,6.279-8.527.769-14.909-8.357-15.875-16.864s1.448-17.1.758-25.629c-1.787-22.1-23.241-37.894-28.463-59.442-4.6-18.994,4.476-39,17.546-53.532s29.883-25.069,45-37.461a229.508,229.508,0,0,0,78.83-131.43c7.672-38.54,5.25-78.383,10.4-117.34a220.545,220.545,0,0,1,6.672-32.334V3377.25H3639.22C3607.744,3388.411,3587.132,3421.418,3580.968,3454.683Z" transform="translate(-1663.855 -3377.25)" fill="url(#linear-gradient-8)"/>
          <path id="Path_9" data-name="Path 9" d="M3672.588,3764.187a229.509,229.509,0,0,1-78.83,131.43c-15.113,12.392-31.926,22.93-45,37.461s-22.148,34.538-17.546,53.532c5.222,21.549,26.676,37.341,28.463,59.442.689,8.533-1.722,17.123-.758,25.629s7.348,17.633,15.875,16.864c4.308-.388,7.992-3.219,11.05-6.279,34.661-34.7,15.362-100.229,48.96-135.954,13.992-14.878,33.932-21.141,54.854-25.675V3614.513a220.577,220.577,0,0,0-6.672,32.334C3677.837,3685.8,3680.26,3725.647,3672.588,3764.187Z" transform="translate(-1699.95 -3446.152)" fill="url(#linear-gradient-9)"/>
          <path id="Path_10" data-name="Path 10" d="M3477.9,3485.888c6.254,45.854,22.969,93,8.931,137.1-10.812,33.966-38.184,59.812-55.372,91.04-20.019,36.37-25.544,78.615-34.778,119.09s-24.072,82.394-56.573,108.224c-9.8,7.785-21.186,14.117-28.229,24.459s-7.568,26.743,2.964,33.5c5.973,3.831,13.583,3.49,20.679,3.466,38.578-.132,80.34,16.413,96.872,51.269,9.611,20.264,9.467,43.575,9.889,66s1.968,46.036,14.209,64.828,38.767,30.118,57.917,18.442c15.156-9.24,20.237-28.309,28.357-44.093,16.272-31.627,47.968-52.828,82.06-63.694V3942.271c-52.111,23.568-77.243,86.557-88.234,144.062-2.754,14.412-5.323,29.583-14.385,41.123s-27.089,17.548-38.706,8.585c-17.4-13.422-4.956-40.321-.2-61.771,7.167-32.31-10.3-68.424-40.084-82.86-13.271-6.433-28.214-8.8-41.509-15.186s-25.538-18.852-24.7-33.575c.735-12.862,10.895-22.857,19.713-32.249a249.809,249.809,0,0,0,43.994-64.851c12.272-26.188,20.018-54.56,35.047-79.269,21.308-35.029,56.341-61.159,72.587-98.8,14.193-32.887,12.165-70.311,7.887-105.874s-10.541-71.7-4.014-106.921c6.164-33.264,26.776-66.271,58.253-77.433H3509.157C3480.084,3400,3472.589,3446.963,3477.9,3485.888Z" transform="translate(-1635.112 -3377.25)" fill="url(#linear-gradient-10)"/>
          <path id="Path_11" data-name="Path 11" d="M3366.127,3469.621c5.085,32.984,10.55,66.662,4.744,99.528-9.735,55.106-49.31,99.6-72.409,150.568-33.995,75.009-33.473,166.529-86.529,229.515-12.851,15.256-28.8,28.746-36.067,47.321s-.907,44.694,18.454,49.5c8.306,2.06,16.979-.222,25.507-.93,43.222-3.586,78.931,32.857,102.283,69.4,23.979,37.529,42.923,81.178,37.673,125.4-2.263,19.063-8.774,39.381-.368,56.639,13.344,27.4,52.413,26.663,81.948,19.161,40.1-10.184,80.713-25.341,121.653-19.365a145.988,145.988,0,0,1,22.956,5.407V4095.513c-34.091,10.866-65.787,32.067-82.059,63.694-8.12,15.784-13.2,34.853-28.357,44.093-19.149,11.676-45.676.35-57.917-18.442s-13.787-42.405-14.209-64.828-.278-45.733-9.889-66c-16.532-34.856-58.294-51.4-96.872-51.269-7.1.024-14.706.365-20.679-3.466-10.532-6.756-10.008-23.158-2.964-33.5s18.434-16.674,28.229-24.459c32.5-25.831,47.339-67.749,56.573-108.224s14.76-82.72,34.778-119.09c17.188-31.228,44.56-57.074,55.372-91.04,14.038-44.1-2.677-91.243-8.931-137.1-5.308-38.925,2.187-85.889,31.26-108.638H3366.76C3357.112,3406.71,3361.391,3438.892,3366.127,3469.621Z" transform="translate(-1596.26 -3377.25)" fill="url(#linear-gradient-11)"/>
          <path id="Path_12" data-name="Path 12" d="M2249.727,3442.563c38.285,24.185,70.228,61.772,78.01,106.382,6.53,37.439-4.215,75.566-5,113.562s13.408,81.754,49.169,94.621c3.948,1.42,8.162,2.418,12.325,1.9,17.058-2.137,20.937-25.477,17.191-42.255-8.111-36.33-30.792-72.138-21-108.052,9.331-34.239,45.334-55.249,57.76-88.49,11.988-32.069-.792-68.51-20.5-96.508-11.682-16.6-25.678-31.383-39.3-46.468H2291.2a69.118,69.118,0,0,0,10.247,18.244c16.854,21.175,46.429,28.517,64.409,48.743a64.273,64.273,0,0,1,13.98,57.592c-1.718,6.719-4.829,13.492-10.573,17.376-8.212,5.553-19.769,3.551-27.863-2.174s-13.477-14.438-18.515-22.976q-14.958-25.347-28.5-51.493c-11.979-23.135-24.918-48.328-43.7-65.312h-181.5c16.407,8.586,35.863,13.771,53.841,18.073C2167.07,3405.863,2211.442,3418.379,2249.727,3442.563Z" transform="translate(-1275.725 -3377.25)" fill="url(#linear-gradient)"/>
          <path id="Path_13" data-name="Path 13" d="M2487.576,4563.875C2468.1,4468,2359.625,4413.042,2261.84,4415.911c-54.438,1.6-107.748,16.416-162.128,19.393a375.872,375.872,0,0,1-179.653-35.019c-40.188-18.9-76.878-44.9-117.934-61.842s-89.4-23.948-129.074-3.987c-67.5,33.963-78.563,123.736-117.118,188.723-50.9,85.8-157.334,129.125-256.8,121.42s-191.341-59.914-264.264-128c-25.793-24.082-51.366-51.231-83.867-63.533v98.769c12.107,8.17,23.491,17.592,34.88,26.769,88.883,71.608,190.559,133.887,303.817,148.05s239.482-29.8,296.083-128.913c30.039-52.6,45.946-123.461,103.042-143.7,37.768-13.387,79.711,2.317,113.682,23.57s64.946,48.509,102.833,61.556c36.29,12.5,75.941,10.826,113.9,5.172,61.122-9.1,121.051-28.143,182.839-29.147s129.061,20.583,161.021,73.472c9.427,15.6,15.388,33.635,14.8,51.851-.928,28.54-17.313,53.892-27.39,80.61a172.18,172.18,0,0,0-10.516,48.542h132.446C2468.679,4702.144,2501.3,4631.445,2487.576,4563.875Z" transform="translate(-951 -3651.698)" fill="url(#linear-gradient)"/>
          <path id="Path_14" data-name="Path 14" d="M2377.9,4692.4c.593-18.216-5.369-36.253-14.8-51.851-31.96-52.889-99.233-74.477-161.021-73.472s-121.717,20.042-182.839,29.147c-37.964,5.655-77.614,7.327-113.9-5.171-37.887-13.047-68.864-40.3-102.833-61.556s-75.913-36.958-113.682-23.571c-57.1,20.239-73,91.1-103.042,143.7-56.6,99.117-182.826,143.076-296.083,128.912s-214.933-76.442-303.817-148.05c-11.39-9.177-22.773-18.6-34.88-26.769v105.308a199.679,199.679,0,0,1,34.306,16.938c30.054,18.443,56,42.778,84.524,63.514a407.526,407.526,0,0,0,51.945,32.072H1493.5c54.983-29.94,102.681-73.138,136.3-125.942,15.244-23.946,28.676-50.755,52.708-65.861,36.017-22.639,83.807-11.393,121.487,8.354s71.955,47.439,113.112,58.2c68.294,17.854,138.259-14.213,207.2-29.4,30.3-6.674,62.455-10,91.97-.428s55.677,34.645,58.567,65.538c3.2,34.188-20.189,61.619-42.582,89.539h107.733a172.179,172.179,0,0,1,10.516-48.542C2360.585,4746.292,2376.969,4720.939,2377.9,4692.4Z" transform="translate(-951 -3703.582)" fill="url(#linear-gradient)"/>
          <path id="Path_15" data-name="Path 15" d="M2496.859,4779.588c-2.891-30.893-29.052-55.967-58.567-65.538s-61.668-6.247-91.97.428c-68.937,15.186-138.9,47.253-207.2,29.4-41.157-10.76-75.431-38.454-113.112-58.2s-85.47-30.993-121.487-8.354c-24.032,15.106-37.464,41.915-52.708,65.861-33.615,52.8-81.313,96-136.3,125.942h150.57c14.865-33.319,20.006-72.787,47.62-96.228,31.292-26.562,78.876-20.929,116.824-5.287s72.972,39.811,113.366,47.1c65.408,11.794,132.689-22.792,198.011-10.528,23.687,4.447,49.028,18.685,52.744,42.5a42.487,42.487,0,0,1-2.937,22.45h62.557C2476.67,4841.206,2500.057,4813.775,2496.859,4779.588Z" transform="translate(-1173.019 -3751.156)" fill="url(#linear-gradient)"/>
          <path id="Path_16" data-name="Path 16" d="M2548.09,4435.007c1.688-28.75,11.824-56.238,17.951-84.379a306.479,306.479,0,0,0,3.618-110.356c-3.942-26.291-11.827-52.993-29.4-72.942-37.914-43.042-104.117-40.355-159.505-55.258-11.165-3-23.244-7.82-28.107-18.31-9.835-21.218,15.969-40.161,35.293-53.333a168.622,168.622,0,0,0,69.091-102.717c15.124-70.34-15.625-147.007,10.317-214.115,16.414-42.462,53.293-74.175,71.64-115.838,24.423-55.46,12.723-119.108,12.365-179.707a266.231,266.231,0,0,1,4.483-50.8h-68.5c.236,14.154.012,28.279-1.858,42.273-13.107,98.119-104.024,175.209-107.188,274.149-1.751,54.762,24.27,107.4,23.735,162.187-.807,82.7-64.867,155.656-141.967,185.57s-164.04,23.205-243.949,1.9-155.386-56.394-233.6-83.259c-55.935-19.212-124.981-31.7-168.342,8.523-31.219,28.958-37.3,75.047-51.338,115.249-44.282,126.814-193.35,206.622-323.44,173.16-95.7-24.615-170-98.576-258.115-143.3A269.7,269.7,0,0,0,951,4100.366v78.254c32.5,12.3,58.074,39.452,83.867,63.533,72.923,68.083,164.8,120.292,264.264,128s205.9-35.617,256.8-121.42c38.555-64.987,49.617-154.76,117.118-188.723,39.674-19.961,88.02-12.954,129.074,3.987s77.746,42.938,117.934,61.843a375.872,375.872,0,0,0,179.653,35.019c54.381-2.977,107.69-17.8,162.128-19.393,97.785-2.869,206.265,52.093,225.737,147.964,13.723,67.57-18.9,138.269-15.14,205.793h90.284C2551.15,4478.313,2546.863,4455.9,2548.09,4435.007Z" transform="translate(-951 -3377.25)" fill="url(#linear-gradient)"/>
          <path id="Path_17" data-name="Path 17" d="M3553.478,4301.769a145.988,145.988,0,0,0-22.956-5.407c-40.939-5.977-81.552,9.181-121.653,19.365-29.535,7.5-68.6,8.235-81.948-19.161-8.406-17.258-1.895-37.577.368-56.639,5.25-44.225-13.694-87.874-37.673-125.4-23.351-36.547-59.061-72.99-102.283-69.4-8.528.708-17.2,2.99-25.507.93-19.361-4.8-25.724-30.92-18.454-49.5s23.217-32.064,36.067-47.321c53.056-62.986,52.534-154.506,86.529-229.515,23.1-50.97,62.674-95.461,72.409-150.568,5.806-32.865.341-66.543-4.744-99.528-4.737-30.729-9.016-62.911.633-92.371h-61.876c-5.779,29.988-4.414,61.666-2.73,92.441,2.312,42.24,4.7,86.025-10.72,125.418-25.459,65.052-94.778,106.237-116.429,172.652-21.174,64.959,7.3,142.937-29.543,200.475-12.917,20.172-32.752,35.407-44.383,56.347s-10.966,52.583,10.4,63.409c8.016,4.061,17.338,4.342,26.314,4.757,31.96,1.474,64.468,5.874,93.158,20.033s53.276,39.414,60.132,70.665c12.791,58.3-37.119,114.8-31.176,174.184,4.431,44.283,44.023,82.368,88.444,85.08,22.212,1.355,44.26-5.123,66.508-4.672,42.327.856,80.246,26.537,110.522,56.128.358.349.711.7,1.067,1.052h59.521Z" transform="translate(-1563.768 -3377.25)" fill="url(#linear-gradient-17)"/>
          <path id="Path_18" data-name="Path 18" d="M3342.341,4438.04c-22.248-.451-44.3,6.028-66.508,4.672-44.421-2.712-84.013-40.8-88.444-85.08-5.943-59.386,43.967-115.888,31.176-174.184-6.856-31.251-31.442-56.505-60.132-70.665s-61.2-18.559-93.158-20.033c-8.976-.415-18.3-.7-26.314-4.757-21.367-10.826-22.033-42.47-10.4-63.409s31.466-36.175,44.383-56.347c36.843-57.538,8.369-135.517,29.543-200.475,21.651-66.416,90.97-107.6,116.429-172.652,15.417-39.393,13.032-83.178,10.72-125.418-1.685-30.775-3.049-62.454,2.73-92.441H3128.575a266.231,266.231,0,0,0-4.483,50.8c.358,60.6,12.058,124.247-12.365,179.707-18.347,41.663-55.226,73.376-71.64,115.838-25.941,67.108,4.807,143.774-10.317,214.115a168.622,168.622,0,0,1-69.091,102.717c-19.324,13.172-45.128,32.116-35.293,53.333,4.863,10.49,16.942,15.306,28.107,18.31,55.388,14.9,121.592,12.216,159.505,55.258,17.573,19.949,25.458,46.652,29.4,72.942a306.479,306.479,0,0,1-3.618,110.356c-6.126,28.141-16.262,55.628-17.951,84.379-1.228,20.892,3.06,43.305,14.631,60.213h318.469c-.355-.351-.709-.7-1.067-1.052C3422.587,4464.576,3384.667,4438.9,3342.341,4438.04Z" transform="translate(-1523.74 -3377.25)" fill="url(#linear-gradient-18)"/>
          <path id="Path_19" data-name="Path 19" d="M1116.035,4011.3c62.447,32.46,116.773,79.769,181.467,107.483s147.994,31,197.932-18.6c68.217-67.747,45.584-201.853,127.752-251.768,34.244-20.8,78.076-19.428,116.379-7.667s72.951,32.81,109,50.3c124.98,60.626,274.492,77.585,404.245,27.991,47.569-18.181,96.456-51.318,104.351-101.626,6.309-40.2-15.385-78.672-29.349-116.9-18.031-49.354-22.058-109.105,10.293-150.51,21.133-27.048,54.623-42.193,76.047-69.011,22.864-28.619,29.01-66.705,28.173-103.747H2333.049q.844,2.01,1.652,4.036c16.071,40.431,16.844,93.094-16.732,120.762-15.381,12.675-35.39,17.914-53.194,26.872-56.315,28.335-87.467,98.972-70.415,159.664,7.645,27.206,23.43,51.3,34.875,77.136s18.445,55.947,7.706,82.086c-13.2,32.13-50.4,49.083-85.133,48.839s-67.73-14.251-99.442-28.424-64.165-28.993-98.841-31.033c-22.255-1.309-44.927,2.71-66.7-2.059s-43.428-22.609-41.724-44.837c1.165-15.2,12.524-27.276,21.5-39.594,19.793-27.15,30-62.02,24.006-95.08-9.69-53.426-57.992-91.5-107.672-113.406s-104.108-33.1-151.062-60.363c-30.571-17.753-58.88-44.945-64.227-79.891a117.017,117.017,0,0,1-.7-24.709h-78.37a131.873,131.873,0,0,1,.971,18.616c-.407,21.08-5.371,41.912-5.236,63,.26,40.583,20.693,80.545,53.441,104.516,33.884,24.8,77.153,31.759,118.43,39.471s84.6,18.084,114.661,47.4,39.45,83.712,8.582,112.18c-29.49,27.2-75.607,17.9-115.633,20.593a176.62,176.62,0,0,0-123.515,63.918c-23.357,28.709-36.919,63.933-55.267,96.075s-44.128,63.119-79.785,73.035c-50.315,13.992-100.8-17.544-144.167-46.643-67.449-45.258-138.027-88.874-216.978-107.967A324.209,324.209,0,0,0,951,3852.623v111.327c6.66.232,13.228.78,19.581,1.612A439.71,439.71,0,0,1,1116.035,4011.3Z" transform="translate(-951 -3377.25)" fill="url(#linear-gradient)"/>
          <path id="Path_20" data-name="Path 20" d="M1044.079,3861.445c78.95,19.093,149.529,62.708,216.978,107.967,43.366,29.1,93.852,60.635,144.167,46.643,35.657-9.916,61.438-40.893,79.785-73.035s31.91-67.366,55.267-96.075a176.62,176.62,0,0,1,123.515-63.918c40.026-2.7,86.144,6.6,115.633-20.593,30.868-28.468,21.478-82.86-8.582-112.18s-73.384-39.693-114.661-47.4-84.546-14.669-118.43-39.471c-32.748-23.971-53.181-63.933-53.441-104.516-.135-21.083,4.829-41.915,5.236-63a131.873,131.873,0,0,0-.971-18.616H1383.208c14.508,14.046,26.776,29.839,32.513,48.977,6.392,21.322,3.782,44.165,5.613,66.349,5.984,72.486,65.5,137.118,137.253,149.042,23.665,3.933,48.266,2.723,71.163,9.879a101.937,101.937,0,0,1,55.508,42.882c4.1,6.575,7.517,13.89,7.722,21.639.42,15.876-13.022,29.374-28.018,34.6s-31.339,4.144-47.212,3.577c-52.644-1.881-110.379,4.836-147.586,42.126-34.033,34.109-45.009,88.416-84.538,115.968-29.491,20.555-69.245,21.2-103.619,10.678s-64.746-30.853-94.953-50.341c-52.486-33.863-106.889-66.3-166.86-83.764A313.594,313.594,0,0,0,951,3776.725v75.9A324.209,324.209,0,0,1,1044.079,3861.445Z" transform="translate(-951 -3377.25)" fill="url(#linear-gradient)"/>
          <path id="Path_21" data-name="Path 21" d="M1187.055,3872.632c30.207,19.489,60.578,39.823,94.953,50.341s74.128,9.877,103.619-10.678c39.529-27.552,50.5-81.859,84.538-115.968,37.208-37.291,94.942-44.007,147.586-42.126,15.872.567,32.216,1.655,47.212-3.577s28.438-18.729,28.018-34.6c-.205-7.749-3.617-15.064-7.722-21.639a101.937,101.937,0,0,0-55.508-42.882c-22.9-7.156-47.5-5.946-71.163-9.879-71.749-11.923-131.269-76.556-137.253-149.042-1.831-22.184.779-45.027-5.613-66.349-5.737-19.138-18.005-34.931-32.513-48.977H1197.589c22.774,9,45.927,17.169,67.865,28.029,33.594,16.631,65.48,41.383,78.951,76.363,16.838,43.723,4.312,100.241,37.934,132.873,17.906,17.378,44.14,22.355,68.8,26.154s50.84,7.847,69.8,24.073,25.689,49.3,6.7,65.489c-13.463,11.475-33.19,10.088-50.872,9.565-34-1.005-69.132,3.921-98.4,21.238-39.208,23.2-72.216,69.047-117.31,62.567-12.737-1.83-24.419-7.938-35.617-14.278-54.441-30.824-104.51-69.537-161.485-95.377-35.258-15.99-74.566-26.6-112.95-26.337v89.115a313.594,313.594,0,0,1,69.194,12.143C1080.166,3806.327,1134.568,3838.769,1187.055,3872.632Z" transform="translate(-951 -3377.25)" fill="url(#linear-gradient)"/>
          <path id="Path_22" data-name="Path 22" d="M985.306,4811.114A199.679,199.679,0,0,0,951,4794.176V4906.7h170.775a407.526,407.526,0,0,1-51.945-32.072C1041.31,4853.892,1015.36,4829.557,985.306,4811.114Z" transform="translate(-951 -3788.729)" fill="url(#linear-gradient)"/>
          <path id="Path_23" data-name="Path 23" d="M1239.392,4257.006c130.09,33.461,279.158-46.346,323.44-173.16,14.038-40.2,20.119-86.291,51.338-115.249,43.361-40.221,112.407-27.736,168.342-8.523,78.214,26.865,153.691,61.958,233.6,83.259s166.849,28.011,243.949-1.9,141.16-102.874,141.967-185.57c.535-54.787-25.487-107.425-23.735-162.187,3.164-98.94,94.081-176.03,107.188-274.149,1.87-13.994,2.093-28.119,1.858-42.273h-45.012c.837,37.042-5.309,75.128-28.173,103.747-21.424,26.818-54.914,41.963-76.047,69.011-32.351,41.4-28.323,101.156-10.293,150.51,13.964,38.224,35.658,76.693,29.349,116.9-7.9,50.308-56.782,83.445-104.351,101.626-129.753,49.594-279.265,32.635-404.245-27.991-36.051-17.487-70.7-38.534-109-50.3s-82.134-13.136-116.379,7.667c-82.168,49.915-59.536,184.021-127.752,251.768-49.938,49.594-133.238,46.31-197.932,18.6s-119.02-75.023-181.467-107.483a439.71,439.71,0,0,0-145.453-45.739c-6.354-.831-12.922-1.38-19.581-1.612v136.417a269.7,269.7,0,0,1,30.278,13.343C1069.391,4158.431,1143.695,4232.392,1239.392,4257.006Z" transform="translate(-951 -3377.25)" fill="url(#linear-gradient)"/>
          <path id="Path_24" data-name="Path 24" d="M2456.278,4883.359c-3.715-23.812-29.056-38.05-52.744-42.5-65.322-12.264-132.6,22.322-198.011,10.528-40.395-7.284-75.418-31.453-113.366-47.1s-85.533-21.276-116.824,5.287c-27.614,23.44-32.754,62.909-47.62,96.228h525.628A42.486,42.486,0,0,0,2456.278,4883.359Z" transform="translate(-1234.64 -3787.84)" fill="url(#linear-gradient)"/>
        </g>
        <g id="Group_204" data-name="Group 204" transform="translate(0)" opacity="0.5">
          <g id="Group_2" data-name="Group 2" transform="translate(0 0.076)">
            <rect id="Rectangle_2" data-name="Rectangle 2" width="2438.558" height="0.709" transform="translate(0 1724.321) rotate(-45)" fill="url(#linear-gradient-25)"/>
          </g>
          <g id="Group_3" data-name="Group 3" transform="translate(15.98 0.076)">
            <rect id="Rectangle_3" data-name="Rectangle 3" width="2438.558" height="0.709" transform="translate(0 1724.321) rotate(-45)" fill="url(#linear-gradient-25)"/>
          </g>
          <g id="Group_4" data-name="Group 4" transform="translate(31.959 0.076)">
            <rect id="Rectangle_4" data-name="Rectangle 4" width="2438.558" height="0.709" transform="translate(0 1724.321) rotate(-45)" fill="url(#linear-gradient-25)"/>
          </g>
          <g id="Group_5" data-name="Group 5" transform="translate(47.938 0.076)">
            <rect id="Rectangle_5" data-name="Rectangle 5" width="2438.558" height="0.709" transform="translate(0 1724.321) rotate(-45)" fill="url(#linear-gradient-25)"/>
          </g>
          <g id="Group_6" data-name="Group 6" transform="translate(63.917 0.076)">
            <rect id="Rectangle_6" data-name="Rectangle 6" width="2438.558" height="0.709" transform="translate(0 1724.321) rotate(-45)" fill="url(#linear-gradient-25)"/>
          </g>
          <g id="Group_7" data-name="Group 7" transform="translate(79.897 0.076)">
            <rect id="Rectangle_7" data-name="Rectangle 7" width="2438.558" height="0.709" transform="translate(0 1724.321) rotate(-45)" fill="url(#linear-gradient-25)"/>
          </g>
          <g id="Group_8" data-name="Group 8" transform="translate(95.876 0.076)">
            <rect id="Rectangle_8" data-name="Rectangle 8" width="2438.558" height="0.709" transform="translate(0 1724.321) rotate(-45)" fill="url(#linear-gradient-25)"/>
          </g>
          <g id="Group_9" data-name="Group 9" transform="translate(111.855 0.076)">
            <rect id="Rectangle_9" data-name="Rectangle 9" width="2438.558" height="0.709" transform="translate(0 1724.321) rotate(-45)" fill="url(#linear-gradient-25)"/>
          </g>
          <g id="Group_10" data-name="Group 10" transform="translate(127.835 0.076)">
            <rect id="Rectangle_10" data-name="Rectangle 10" width="2438.558" height="0.709" transform="translate(0 1724.321) rotate(-45)" fill="url(#linear-gradient-25)"/>
          </g>
          <g id="Group_11" data-name="Group 11" transform="translate(143.814 0.076)">
            <rect id="Rectangle_11" data-name="Rectangle 11" width="2438.558" height="0.709" transform="translate(0 1724.321) rotate(-45)" fill="url(#linear-gradient-25)"/>
          </g>
          <g id="Group_12" data-name="Group 12" transform="translate(159.793 0.076)">
            <rect id="Rectangle_12" data-name="Rectangle 12" width="2438.558" height="0.709" transform="translate(0 1724.321) rotate(-45)" fill="url(#linear-gradient-25)"/>
          </g>
          <g id="Group_13" data-name="Group 13" transform="translate(175.834 0.015)">
            <rect id="Rectangle_13" data-name="Rectangle 13" width="2438.558" height="0.71" transform="translate(0 1724.443) rotate(-45.004)" fill="url(#linear-gradient-25)"/>
          </g>
          <g id="Group_14" data-name="Group 14" transform="translate(191.752 0.076)">
            <rect id="Rectangle_14" data-name="Rectangle 14" width="2438.558" height="0.709" transform="translate(0 1724.321) rotate(-45)" fill="url(#linear-gradient-25)"/>
          </g>
          <g id="Group_15" data-name="Group 15" transform="translate(207.792 0.015)">
            <rect id="Rectangle_15" data-name="Rectangle 15" width="2438.558" height="0.71" transform="translate(0 1724.443) rotate(-45.004)" fill="url(#linear-gradient-25)"/>
          </g>
          <g id="Group_16" data-name="Group 16" transform="translate(223.71 0.076)">
            <rect id="Rectangle_16" data-name="Rectangle 16" width="2438.558" height="0.709" transform="translate(0 1724.321) rotate(-45)" fill="url(#linear-gradient-25)"/>
          </g>
          <g id="Group_17" data-name="Group 17" transform="translate(239.751 0.015)">
            <rect id="Rectangle_17" data-name="Rectangle 17" width="2438.558" height="0.71" transform="translate(0 1724.443) rotate(-45.004)" fill="url(#linear-gradient-25)"/>
          </g>
          <g id="Group_18" data-name="Group 18" transform="translate(255.669 0.076)">
            <rect id="Rectangle_18" data-name="Rectangle 18" width="2438.558" height="0.709" transform="translate(0 1724.321) rotate(-45)" fill="url(#linear-gradient-25)"/>
          </g>
          <g id="Group_19" data-name="Group 19" transform="translate(271.709 0.015)">
            <rect id="Rectangle_19" data-name="Rectangle 19" width="2438.558" height="0.71" transform="translate(0 1724.443) rotate(-45.004)" fill="url(#linear-gradient-25)"/>
          </g>
          <g id="Group_20" data-name="Group 20" transform="translate(287.628 0.076)">
            <rect id="Rectangle_20" data-name="Rectangle 20" width="2438.558" height="0.709" transform="translate(0 1724.321) rotate(-45)" fill="url(#linear-gradient-25)"/>
          </g>
          <g id="Group_21" data-name="Group 21" transform="translate(303.668 0.015)">
            <rect id="Rectangle_21" data-name="Rectangle 21" width="2438.558" height="0.71" transform="translate(0 1724.443) rotate(-45.004)" fill="url(#linear-gradient-25)"/>
          </g>
          <g id="Group_22" data-name="Group 22" transform="translate(319.586 0.076)">
            <rect id="Rectangle_22" data-name="Rectangle 22" width="2438.558" height="0.709" transform="translate(0 1724.321) rotate(-45)" fill="url(#linear-gradient-25)"/>
          </g>
          <g id="Group_23" data-name="Group 23" transform="translate(335.626 0.015)">
            <rect id="Rectangle_23" data-name="Rectangle 23" width="2438.558" height="0.71" transform="translate(0 1724.443) rotate(-45.004)" fill="url(#linear-gradient-25)"/>
          </g>
          <g id="Group_24" data-name="Group 24" transform="translate(351.545 0.076)">
            <rect id="Rectangle_24" data-name="Rectangle 24" width="2438.558" height="0.709" transform="translate(0 1724.321) rotate(-45)" fill="url(#linear-gradient-25)"/>
          </g>
          <g id="Group_25" data-name="Group 25" transform="translate(367.585 0.015)">
            <rect id="Rectangle_25" data-name="Rectangle 25" width="2438.558" height="0.71" transform="translate(0 1724.443) rotate(-45.004)" fill="url(#linear-gradient-25)"/>
          </g>
          <g id="Group_26" data-name="Group 26" transform="translate(383.503 0.076)">
            <rect id="Rectangle_26" data-name="Rectangle 26" width="2438.558" height="0.709" transform="translate(0 1724.321) rotate(-45)" fill="url(#linear-gradient-25)"/>
          </g>
          <g id="Group_27" data-name="Group 27" transform="translate(399.483 0.076)">
            <rect id="Rectangle_27" data-name="Rectangle 27" width="2438.558" height="0.709" transform="translate(0 1724.321) rotate(-45)" fill="url(#linear-gradient-25)"/>
          </g>
          <g id="Group_28" data-name="Group 28" transform="translate(415.462 0.076)">
            <rect id="Rectangle_28" data-name="Rectangle 28" width="2438.558" height="0.709" transform="translate(0 1724.321) rotate(-45)" fill="url(#linear-gradient-25)"/>
          </g>
          <g id="Group_29" data-name="Group 29" transform="translate(431.441 0.076)">
            <rect id="Rectangle_29" data-name="Rectangle 29" width="2438.558" height="0.709" transform="translate(0 1724.321) rotate(-45)" fill="url(#linear-gradient-25)"/>
          </g>
          <g id="Group_30" data-name="Group 30" transform="translate(447.42 0.076)">
            <rect id="Rectangle_30" data-name="Rectangle 30" width="2438.558" height="0.709" transform="translate(0 1724.321) rotate(-45)" fill="url(#linear-gradient-25)"/>
          </g>
          <g id="Group_31" data-name="Group 31" transform="translate(463.4 0.076)">
            <rect id="Rectangle_31" data-name="Rectangle 31" width="2438.558" height="0.709" transform="translate(0 1724.321) rotate(-45)" fill="url(#linear-gradient-25)"/>
          </g>
          <g id="Group_32" data-name="Group 32" transform="translate(479.379 0.076)">
            <rect id="Rectangle_32" data-name="Rectangle 32" width="2438.558" height="0.709" transform="translate(0 1724.321) rotate(-45)" fill="url(#linear-gradient-25)"/>
          </g>
          <g id="Group_33" data-name="Group 33" transform="translate(495.358 0.076)">
            <rect id="Rectangle_33" data-name="Rectangle 33" width="2438.558" height="0.709" transform="translate(0 1724.321) rotate(-45)" fill="url(#linear-gradient-25)"/>
          </g>
          <g id="Group_34" data-name="Group 34" transform="translate(511.399 0.015)">
            <rect id="Rectangle_34" data-name="Rectangle 34" width="2438.558" height="0.71" transform="translate(0 1724.443) rotate(-45.004)" fill="url(#linear-gradient-25)"/>
          </g>
          <g id="Group_35" data-name="Group 35" transform="translate(527.317 0.076)">
            <rect id="Rectangle_35" data-name="Rectangle 35" width="2438.558" height="0.709" transform="translate(0 1724.321) rotate(-45)" fill="url(#linear-gradient-25)"/>
          </g>
          <g id="Group_36" data-name="Group 36" transform="translate(543.357 0.015)">
            <rect id="Rectangle_36" data-name="Rectangle 36" width="2438.558" height="0.71" transform="translate(0 1724.443) rotate(-45.004)" fill="url(#linear-gradient-25)"/>
          </g>
          <g id="Group_37" data-name="Group 37" transform="translate(559.276 0.076)">
            <rect id="Rectangle_37" data-name="Rectangle 37" width="2438.558" height="0.709" transform="translate(0 1724.321) rotate(-45)" fill="url(#linear-gradient-25)"/>
          </g>
          <g id="Group_38" data-name="Group 38" transform="translate(575.316 0.015)">
            <rect id="Rectangle_38" data-name="Rectangle 38" width="2438.558" height="0.71" transform="translate(0 1724.443) rotate(-45.004)" fill="url(#linear-gradient-25)"/>
          </g>
          <g id="Group_39" data-name="Group 39" transform="translate(591.234 0.076)">
            <rect id="Rectangle_39" data-name="Rectangle 39" width="2438.558" height="0.709" transform="translate(0 1724.321) rotate(-45)" fill="url(#linear-gradient-25)"/>
          </g>
          <g id="Group_40" data-name="Group 40" transform="translate(607.274 0.015)">
            <rect id="Rectangle_40" data-name="Rectangle 40" width="2438.558" height="0.71" transform="translate(0 1724.443) rotate(-45.004)" fill="url(#linear-gradient-25)"/>
          </g>
          <g id="Group_41" data-name="Group 41" transform="translate(623.193 0.076)">
            <rect id="Rectangle_41" data-name="Rectangle 41" width="2438.558" height="0.709" transform="translate(0 1724.321) rotate(-45)" fill="url(#linear-gradient-25)"/>
          </g>
          <g id="Group_42" data-name="Group 42" transform="translate(639.233 0.015)">
            <rect id="Rectangle_42" data-name="Rectangle 42" width="2438.558" height="0.71" transform="translate(0 1724.443) rotate(-45.004)" fill="url(#linear-gradient-25)"/>
          </g>
          <g id="Group_43" data-name="Group 43" transform="translate(655.152 0.076)">
            <rect id="Rectangle_43" data-name="Rectangle 43" width="2438.558" height="0.709" transform="translate(0 1724.321) rotate(-45)" fill="url(#linear-gradient-25)"/>
          </g>
          <g id="Group_44" data-name="Group 44" transform="translate(671.192 0.015)">
            <rect id="Rectangle_44" data-name="Rectangle 44" width="2438.558" height="0.71" transform="translate(0 1724.443) rotate(-45.004)" fill="url(#linear-gradient-25)"/>
          </g>
          <g id="Group_45" data-name="Group 45" transform="translate(687.11 0.076)">
            <rect id="Rectangle_45" data-name="Rectangle 45" width="2438.558" height="0.709" transform="translate(0 1724.321) rotate(-45)" fill="url(#linear-gradient-25)"/>
          </g>
          <g id="Group_46" data-name="Group 46" transform="translate(703.15 0.015)">
            <rect id="Rectangle_46" data-name="Rectangle 46" width="2438.558" height="0.71" transform="translate(0 1724.443) rotate(-45.004)" fill="url(#linear-gradient-25)"/>
          </g>
          <g id="Group_47" data-name="Group 47" transform="translate(719.069 0.076)">
            <rect id="Rectangle_47" data-name="Rectangle 47" width="2438.558" height="0.709" transform="translate(0 1724.321) rotate(-45)" fill="url(#linear-gradient-25)"/>
          </g>
          <g id="Group_48" data-name="Group 48" transform="translate(735.048 0.076)">
            <rect id="Rectangle_48" data-name="Rectangle 48" width="2438.558" height="0.709" transform="translate(0 1724.321) rotate(-45)" fill="url(#linear-gradient-25)"/>
          </g>
          <g id="Group_49" data-name="Group 49" transform="translate(751.027 0.076)">
            <rect id="Rectangle_49" data-name="Rectangle 49" width="2438.558" height="0.709" transform="translate(0 1724.321) rotate(-45)" fill="url(#linear-gradient-25)"/>
          </g>
          <g id="Group_50" data-name="Group 50" transform="translate(767.007 0.076)">
            <rect id="Rectangle_50" data-name="Rectangle 50" width="2438.558" height="0.709" transform="translate(0 1724.321) rotate(-45)" fill="url(#linear-gradient-25)"/>
          </g>
          <g id="Group_51" data-name="Group 51" transform="translate(782.986 0.076)">
            <rect id="Rectangle_51" data-name="Rectangle 51" width="2438.558" height="0.709" transform="translate(0 1724.321) rotate(-45)" fill="url(#linear-gradient-25)"/>
          </g>
          <g id="Group_52" data-name="Group 52" transform="translate(798.965 0.076)">
            <rect id="Rectangle_52" data-name="Rectangle 52" width="2438.558" height="0.709" transform="translate(0 1724.321) rotate(-45)" fill="url(#linear-gradient-25)"/>
          </g>
          <g id="Group_53" data-name="Group 53" transform="translate(814.945 0.076)">
            <rect id="Rectangle_53" data-name="Rectangle 53" width="2438.558" height="0.709" transform="translate(0 1724.321) rotate(-45)" fill="url(#linear-gradient-25)"/>
          </g>
          <g id="Group_54" data-name="Group 54" transform="translate(830.924 0.076)">
            <rect id="Rectangle_54" data-name="Rectangle 54" width="2438.558" height="0.709" transform="translate(0 1724.321) rotate(-45)" fill="url(#linear-gradient-25)"/>
          </g>
          <g id="Group_55" data-name="Group 55" transform="translate(846.903 0.076)">
            <rect id="Rectangle_55" data-name="Rectangle 55" width="2438.558" height="0.709" transform="translate(0 1724.321) rotate(-45)" fill="url(#linear-gradient-25)"/>
          </g>
          <g id="Group_56" data-name="Group 56" transform="translate(862.882 0.076)">
            <rect id="Rectangle_56" data-name="Rectangle 56" width="2438.558" height="0.709" transform="translate(0 1724.321) rotate(-45)" fill="url(#linear-gradient-25)"/>
          </g>
          <g id="Group_57" data-name="Group 57" transform="translate(878.862 0.076)">
            <rect id="Rectangle_57" data-name="Rectangle 57" width="2438.558" height="0.709" transform="translate(0 1724.321) rotate(-45)" fill="url(#linear-gradient-25)"/>
          </g>
          <g id="Group_58" data-name="Group 58" transform="translate(894.841 0.076)">
            <rect id="Rectangle_58" data-name="Rectangle 58" width="2438.558" height="0.709" transform="translate(0 1724.321) rotate(-45)" fill="url(#linear-gradient-25)"/>
          </g>
          <g id="Group_59" data-name="Group 59" transform="translate(910.881 0.015)">
            <rect id="Rectangle_59" data-name="Rectangle 59" width="2438.558" height="0.71" transform="translate(0 1724.443) rotate(-45.004)" fill="url(#linear-gradient-25)"/>
          </g>
          <g id="Group_60" data-name="Group 60" transform="translate(926.8 0.076)">
            <rect id="Rectangle_60" data-name="Rectangle 60" width="2438.558" height="0.709" transform="translate(0 1724.321) rotate(-45)" fill="url(#linear-gradient-25)"/>
          </g>
          <g id="Group_61" data-name="Group 61" transform="translate(942.84 0.015)">
            <rect id="Rectangle_61" data-name="Rectangle 61" width="2438.558" height="0.71" transform="translate(0 1724.443) rotate(-45.004)" fill="url(#linear-gradient-25)"/>
          </g>
          <g id="Group_62" data-name="Group 62" transform="translate(958.758 0.076)">
            <rect id="Rectangle_62" data-name="Rectangle 62" width="2438.558" height="0.709" transform="translate(0 1724.321) rotate(-45)" fill="url(#linear-gradient-25)"/>
          </g>
          <g id="Group_63" data-name="Group 63" transform="translate(974.798 0.015)">
            <rect id="Rectangle_63" data-name="Rectangle 63" width="2438.558" height="0.71" transform="translate(0 1724.443) rotate(-45.004)" fill="url(#linear-gradient-25)"/>
          </g>
          <g id="Group_64" data-name="Group 64" transform="translate(990.717 0.076)">
            <rect id="Rectangle_64" data-name="Rectangle 64" width="2438.558" height="0.709" transform="translate(0 1724.321) rotate(-45)" fill="url(#linear-gradient-25)"/>
          </g>
          <g id="Group_65" data-name="Group 65" transform="translate(1006.761 0.01)">
            <rect id="Rectangle_65" data-name="Rectangle 65" width="2438.558" height="0.71" transform="translate(0 1724.452) rotate(-45.004)" fill="url(#linear-gradient-25)"/>
          </g>
          <g id="Group_66" data-name="Group 66" transform="translate(1022.675 0.076)">
            <rect id="Rectangle_66" data-name="Rectangle 66" width="2438.558" height="0.709" transform="translate(0 1724.321) rotate(-45)" fill="url(#linear-gradient-25)"/>
          </g>
          <g id="Group_67" data-name="Group 67" transform="translate(1038.711 0.02)">
            <rect id="Rectangle_67" data-name="Rectangle 67" width="2438.558" height="0.71" transform="matrix(0.707, -0.707, 0.707, 0.707, 0, 1724.432)" fill="url(#linear-gradient-25)"/>
          </g>
          <g id="Group_68" data-name="Group 68" transform="translate(1054.634 0.076)">
            <rect id="Rectangle_68" data-name="Rectangle 68" width="2438.558" height="0.709" transform="translate(0 1724.321) rotate(-45)" fill="url(#linear-gradient-25)"/>
          </g>
          <g id="Group_69" data-name="Group 69" transform="translate(1070.674 0.015)">
            <rect id="Rectangle_69" data-name="Rectangle 69" width="2438.558" height="0.71" transform="translate(0 1724.443) rotate(-45.004)" fill="url(#linear-gradient-25)"/>
          </g>
          <g id="Group_70" data-name="Group 70" transform="translate(1086.593 0.076)">
            <rect id="Rectangle_70" data-name="Rectangle 70" width="2438.558" height="0.709" transform="translate(0 1724.321) rotate(-45)" fill="url(#linear-gradient-25)"/>
          </g>
          <g id="Group_71" data-name="Group 71" transform="translate(1102.633 0.015)">
            <rect id="Rectangle_71" data-name="Rectangle 71" width="2438.558" height="0.71" transform="translate(0 1724.443) rotate(-45.004)" fill="url(#linear-gradient-25)"/>
          </g>
          <g id="Group_72" data-name="Group 72" transform="translate(1118.551 0.076)">
            <rect id="Rectangle_72" data-name="Rectangle 72" width="2438.558" height="0.709" transform="translate(0 1724.321) rotate(-45)" fill="url(#linear-gradient-25)"/>
          </g>
          <g id="Group_73" data-name="Group 73" transform="translate(1134.591 0.015)">
            <rect id="Rectangle_73" data-name="Rectangle 73" width="2438.558" height="0.71" transform="translate(0 1724.443) rotate(-45.004)" fill="url(#linear-gradient-25)"/>
          </g>
          <g id="Group_74" data-name="Group 74" transform="translate(1150.51 0.076)">
            <rect id="Rectangle_74" data-name="Rectangle 74" width="2438.558" height="0.709" transform="translate(0 1724.321) rotate(-45)" fill="url(#linear-gradient-25)"/>
          </g>
          <g id="Group_75" data-name="Group 75" transform="translate(1166.489 0.076)">
            <rect id="Rectangle_75" data-name="Rectangle 75" width="2438.558" height="0.709" transform="translate(0 1724.321) rotate(-45)" fill="url(#linear-gradient-25)"/>
          </g>
          <g id="Group_76" data-name="Group 76" transform="translate(1182.468 0.076)">
            <rect id="Rectangle_76" data-name="Rectangle 76" width="2438.558" height="0.709" transform="translate(0 1724.321) rotate(-45)" fill="url(#linear-gradient-25)"/>
          </g>
          <g id="Group_77" data-name="Group 77" transform="translate(1198.448 0.076)">
            <rect id="Rectangle_77" data-name="Rectangle 77" width="2438.558" height="0.709" transform="translate(0 1724.321) rotate(-45)" fill="url(#linear-gradient-25)"/>
          </g>
          <g id="Group_78" data-name="Group 78" transform="translate(1214.427 0.076)">
            <rect id="Rectangle_78" data-name="Rectangle 78" width="2438.558" height="0.709" transform="translate(0 1724.321) rotate(-45)" fill="url(#linear-gradient-25)"/>
          </g>
          <g id="Group_79" data-name="Group 79" transform="translate(1230.406 0.076)">
            <rect id="Rectangle_79" data-name="Rectangle 79" width="2438.558" height="0.709" transform="translate(0 1724.321) rotate(-45)" fill="url(#linear-gradient-25)"/>
          </g>
          <g id="Group_80" data-name="Group 80" transform="translate(1246.385 0.076)">
            <rect id="Rectangle_80" data-name="Rectangle 80" width="2438.558" height="0.709" transform="translate(0 1724.321) rotate(-45)" fill="url(#linear-gradient-25)"/>
          </g>
          <g id="Group_81" data-name="Group 81" transform="translate(1262.365 0.076)">
            <rect id="Rectangle_81" data-name="Rectangle 81" width="2438.558" height="0.709" transform="translate(0 1724.321) rotate(-45)" fill="url(#linear-gradient-25)"/>
          </g>
          <g id="Group_82" data-name="Group 82" transform="translate(1278.344 0.076)">
            <rect id="Rectangle_82" data-name="Rectangle 82" width="2438.558" height="0.709" transform="translate(0 1724.321) rotate(-45)" fill="url(#linear-gradient-25)"/>
          </g>
          <g id="Group_83" data-name="Group 83" transform="translate(1294.323 0.076)">
            <rect id="Rectangle_83" data-name="Rectangle 83" width="2438.558" height="0.709" transform="translate(0 1724.321) rotate(-45)" fill="url(#linear-gradient-25)"/>
          </g>
          <g id="Group_84" data-name="Group 84" transform="translate(1310.303 0.076)">
            <rect id="Rectangle_84" data-name="Rectangle 84" width="2438.558" height="0.71" transform="translate(0 1724.321) rotate(-45)" fill="url(#linear-gradient-25)"/>
          </g>
          <g id="Group_85" data-name="Group 85" transform="translate(1326.282 0.076)">
            <rect id="Rectangle_85" data-name="Rectangle 85" width="2438.558" height="0.709" transform="translate(0 1724.321) rotate(-45)" fill="url(#linear-gradient-25)"/>
          </g>
          <g id="Group_86" data-name="Group 86" transform="translate(1342.322 0.015)">
            <rect id="Rectangle_86" data-name="Rectangle 86" width="2438.558" height="0.71" transform="translate(0 1724.443) rotate(-45.004)" fill="url(#linear-gradient-25)"/>
          </g>
          <g id="Group_87" data-name="Group 87" transform="translate(1358.241 0.076)">
            <rect id="Rectangle_87" data-name="Rectangle 87" width="2438.558" height="0.709" transform="translate(0 1724.321) rotate(-45)" fill="url(#linear-gradient-25)"/>
          </g>
          <g id="Group_88" data-name="Group 88" transform="translate(1374.281 0.015)">
            <rect id="Rectangle_88" data-name="Rectangle 88" width="2438.558" height="0.71" transform="translate(0 1724.443) rotate(-45.004)" fill="url(#linear-gradient-25)"/>
          </g>
          <g id="Group_89" data-name="Group 89" transform="translate(1390.199 0.076)">
            <rect id="Rectangle_89" data-name="Rectangle 89" width="2438.558" height="0.709" transform="translate(0 1724.321) rotate(-45)" fill="url(#linear-gradient-25)"/>
          </g>
          <g id="Group_90" data-name="Group 90" transform="translate(1406.24 0.015)">
            <rect id="Rectangle_90" data-name="Rectangle 90" width="2438.558" height="0.71" transform="translate(0 1724.443) rotate(-45.004)" fill="url(#linear-gradient-25)"/>
          </g>
          <g id="Group_91" data-name="Group 91" transform="translate(1422.158 0.076)">
            <rect id="Rectangle_91" data-name="Rectangle 91" width="2438.558" height="0.709" transform="translate(0 1724.321) rotate(-45)" fill="url(#linear-gradient-25)"/>
          </g>
          <g id="Group_92" data-name="Group 92" transform="translate(1438.212 0.001)">
            <rect id="Rectangle_92" data-name="Rectangle 92" width="2438.558" height="0.71" transform="translate(0 1724.471) rotate(-45.005)" fill="url(#linear-gradient-25)"/>
          </g>
          <g id="Group_93" data-name="Group 93" transform="translate(1454.116 0.076)">
            <rect id="Rectangle_93" data-name="Rectangle 93" width="2438.558" height="0.709" transform="translate(0 1724.321) rotate(-45)" fill="url(#linear-gradient-25)"/>
          </g>
          <g id="Group_94" data-name="Group 94" transform="translate(1470.157 0.015)">
            <rect id="Rectangle_94" data-name="Rectangle 94" width="2438.558" height="0.71" transform="translate(0 1724.443) rotate(-45.004)" fill="url(#linear-gradient-25)"/>
          </g>
          <g id="Group_95" data-name="Group 95" transform="translate(1486.075 0.076)">
            <rect id="Rectangle_95" data-name="Rectangle 95" width="2438.558" height="0.709" transform="translate(0 1724.321) rotate(-45)" fill="url(#linear-gradient-25)"/>
          </g>
          <g id="Group_96" data-name="Group 96" transform="translate(1502.073 0.057)">
            <rect id="Rectangle_96" data-name="Rectangle 96" width="2438.558" height="0.71" transform="translate(0 1724.358) rotate(-45.001)" fill="url(#linear-gradient-25)"/>
          </g>
          <g id="Group_97" data-name="Group 97" transform="translate(1518.034 0.076)">
            <rect id="Rectangle_97" data-name="Rectangle 97" width="2438.558" height="0.709" transform="translate(0 1724.321) rotate(-45)" fill="url(#linear-gradient-25)"/>
          </g>
          <g id="Group_98" data-name="Group 98" transform="translate(1534.074 0.015)">
            <rect id="Rectangle_98" data-name="Rectangle 98" width="2438.558" height="0.71" transform="translate(0 1724.443) rotate(-45.004)" fill="url(#linear-gradient-25)"/>
          </g>
          <g id="Group_99" data-name="Group 99" transform="translate(1549.992 0.076)">
            <rect id="Rectangle_99" data-name="Rectangle 99" width="2438.558" height="0.709" transform="translate(0 1724.321) rotate(-45)" fill="url(#linear-gradient-25)"/>
          </g>
          <g id="Group_100" data-name="Group 100" transform="translate(1566.032 0.015)">
            <rect id="Rectangle_100" data-name="Rectangle 100" width="2438.558" height="0.71" transform="translate(0 1724.443) rotate(-45.004)" fill="url(#linear-gradient-25)"/>
          </g>
          <g id="Group_101" data-name="Group 101" transform="translate(1581.951 0.076)">
            <rect id="Rectangle_101" data-name="Rectangle 101" width="2438.558" height="0.709" transform="translate(0 1724.321) rotate(-45)" fill="url(#linear-gradient-25)"/>
          </g>
          <g id="Group_102" data-name="Group 102" transform="translate(1597.93 0.076)">
            <rect id="Rectangle_102" data-name="Rectangle 102" width="2438.558" height="0.709" transform="translate(0 1724.321) rotate(-45)" fill="url(#linear-gradient-25)"/>
          </g>
          <g id="Group_103" data-name="Group 103" transform="translate(1613.909 0.076)">
            <rect id="Rectangle_103" data-name="Rectangle 103" width="2438.558" height="0.709" transform="translate(0 1724.321) rotate(-45)" fill="url(#linear-gradient-25)"/>
          </g>
          <g id="Group_104" data-name="Group 104" transform="translate(1629.889 0.076)">
            <rect id="Rectangle_104" data-name="Rectangle 104" width="2438.558" height="0.709" transform="translate(0 1724.321) rotate(-45)" fill="url(#linear-gradient-25)"/>
          </g>
          <g id="Group_105" data-name="Group 105" transform="translate(1645.868 0.076)">
            <rect id="Rectangle_105" data-name="Rectangle 105" width="2438.558" height="0.71" transform="translate(0 1724.321) rotate(-45)" fill="url(#linear-gradient-25)"/>
          </g>
          <g id="Group_106" data-name="Group 106" transform="translate(1661.847 0.076)">
            <rect id="Rectangle_106" data-name="Rectangle 106" width="2438.558" height="0.709" transform="translate(0 1724.321) rotate(-45)" fill="url(#linear-gradient-25)"/>
          </g>
          <g id="Group_107" data-name="Group 107" transform="translate(1677.827 0.076)">
            <rect id="Rectangle_107" data-name="Rectangle 107" width="2438.558" height="0.709" transform="translate(0 1724.321) rotate(-45)" fill="url(#linear-gradient-25)"/>
          </g>
          <g id="Group_108" data-name="Group 108" transform="translate(1693.806 0.076)">
            <rect id="Rectangle_108" data-name="Rectangle 108" width="2438.558" height="0.709" transform="translate(0 1724.321) rotate(-45)" fill="url(#linear-gradient-25)"/>
          </g>
          <g id="Group_109" data-name="Group 109" transform="translate(1709.842 0.019)">
            <rect id="Rectangle_109" data-name="Rectangle 109" width="2438.558" height="0.71" transform="matrix(0.707, -0.707, 0.707, 0.707, 0, 1724.434)" fill="url(#linear-gradient-25)"/>
          </g>
          <g id="Group_110" data-name="Group 110" transform="translate(1725.765 0.076)">
            <rect id="Rectangle_110" data-name="Rectangle 110" width="2438.558" height="0.709" transform="translate(0 1724.321) rotate(-45)" fill="url(#linear-gradient-25)"/>
          </g>
          <g id="Group_111" data-name="Group 111" transform="translate(1741.805 0.015)">
            <rect id="Rectangle_111" data-name="Rectangle 111" width="2438.558" height="0.71" transform="translate(0 1724.443) rotate(-45.004)" fill="url(#linear-gradient-25)"/>
          </g>
          <g id="Group_112" data-name="Group 112" transform="translate(1757.723 0.076)">
            <rect id="Rectangle_112" data-name="Rectangle 112" width="2438.558" height="0.709" transform="translate(0 1724.321) rotate(-45)" fill="url(#linear-gradient-25)"/>
          </g>
          <g id="Group_113" data-name="Group 113" transform="translate(1773.763 0.015)">
            <rect id="Rectangle_113" data-name="Rectangle 113" width="2438.558" height="0.71" transform="translate(0 1724.443) rotate(-45.004)" fill="url(#linear-gradient-25)"/>
          </g>
          <g id="Group_114" data-name="Group 114" transform="translate(1789.682 0.076)">
            <rect id="Rectangle_114" data-name="Rectangle 114" width="2438.558" height="0.709" transform="translate(0 1724.321) rotate(-45)" fill="url(#linear-gradient-25)"/>
          </g>
          <g id="Group_115" data-name="Group 115" transform="translate(1805.722 0.015)">
            <rect id="Rectangle_115" data-name="Rectangle 115" width="2438.558" height="0.71" transform="translate(0 1724.443) rotate(-45.004)" fill="url(#linear-gradient-25)"/>
          </g>
          <g id="Group_116" data-name="Group 116" transform="translate(1821.641 0.076)">
            <rect id="Rectangle_116" data-name="Rectangle 116" width="2438.558" height="0.709" transform="translate(0 1724.321) rotate(-45)" fill="url(#linear-gradient-25)"/>
          </g>
          <g id="Group_117" data-name="Group 117" transform="translate(1837.681 0.015)">
            <rect id="Rectangle_117" data-name="Rectangle 117" width="2438.558" height="0.71" transform="translate(0 1724.443) rotate(-45.004)" fill="url(#linear-gradient-25)"/>
          </g>
          <g id="Group_118" data-name="Group 118" transform="translate(1853.599 0.076)">
            <rect id="Rectangle_118" data-name="Rectangle 118" width="2438.558" height="0.709" transform="translate(0 1724.321) rotate(-45)" fill="url(#linear-gradient-25)"/>
          </g>
          <g id="Group_119" data-name="Group 119" transform="translate(1869.631 0.023)">
            <rect id="Rectangle_119" data-name="Rectangle 119" width="2438.558" height="0.71" transform="translate(0 1724.427) rotate(-45.004)" fill="url(#linear-gradient-25)"/>
          </g>
          <g id="Group_120" data-name="Group 120" transform="translate(1885.557 0.076)">
            <rect id="Rectangle_120" data-name="Rectangle 120" width="2438.558" height="0.709" transform="translate(0 1724.321) rotate(-45)" fill="url(#linear-gradient-25)"/>
          </g>
          <g id="Group_121" data-name="Group 121" transform="translate(1901.598 0.015)">
            <rect id="Rectangle_121" data-name="Rectangle 121" width="2438.558" height="0.71" transform="translate(0 1724.443) rotate(-45.004)" fill="url(#linear-gradient-25)"/>
          </g>
          <g id="Group_122" data-name="Group 122" transform="translate(1917.516 0.076)">
            <rect id="Rectangle_122" data-name="Rectangle 122" width="2438.558" height="0.709" transform="translate(0 1724.321) rotate(-45)" fill="url(#linear-gradient-25)"/>
          </g>
          <g id="Group_123" data-name="Group 123" transform="translate(1933.495 0.076)">
            <rect id="Rectangle_123" data-name="Rectangle 123" width="2438.558" height="0.709" transform="translate(0 1724.321) rotate(-45)" fill="url(#linear-gradient-25)"/>
          </g>
          <g id="Group_124" data-name="Group 124" transform="translate(1949.475 0.076)">
            <rect id="Rectangle_124" data-name="Rectangle 124" width="2438.558" height="0.709" transform="translate(0 1724.321) rotate(-45)" fill="url(#linear-gradient-25)"/>
          </g>
          <g id="Group_125" data-name="Group 125" transform="translate(1965.454 0.076)">
            <rect id="Rectangle_125" data-name="Rectangle 125" width="2438.558" height="0.71" transform="translate(0 1724.321) rotate(-45)" fill="url(#linear-gradient-25)"/>
          </g>
          <g id="Group_126" data-name="Group 126" transform="translate(1981.433 0.076)">
            <rect id="Rectangle_126" data-name="Rectangle 126" width="2438.558" height="0.709" transform="translate(0 1724.321) rotate(-45)" fill="url(#linear-gradient-25)"/>
          </g>
          <g id="Group_127" data-name="Group 127" transform="translate(1997.413 0.076)">
            <rect id="Rectangle_127" data-name="Rectangle 127" width="2438.558" height="0.709" transform="translate(0 1724.321) rotate(-45)" fill="url(#linear-gradient-25)"/>
          </g>
          <g id="Group_128" data-name="Group 128" transform="translate(2013.392 0.076)">
            <rect id="Rectangle_128" data-name="Rectangle 128" width="2438.558" height="0.709" transform="translate(0 1724.321) rotate(-45)" fill="url(#linear-gradient-25)"/>
          </g>
          <g id="Group_129" data-name="Group 129" transform="translate(2029.371 0.076)">
            <rect id="Rectangle_129" data-name="Rectangle 129" width="2438.558" height="0.709" transform="translate(0 1724.321) rotate(-45)" fill="url(#linear-gradient-25)"/>
          </g>
          <g id="Group_130" data-name="Group 130" transform="translate(2045.351 0.076)">
            <rect id="Rectangle_130" data-name="Rectangle 130" width="2438.558" height="0.709" transform="translate(0 1724.321) rotate(-45)" fill="url(#linear-gradient-25)"/>
          </g>
          <g id="Group_131" data-name="Group 131" transform="translate(2061.33 0.076)">
            <rect id="Rectangle_131" data-name="Rectangle 131" width="2438.558" height="0.709" transform="translate(0 1724.321) rotate(-45)" fill="url(#linear-gradient-25)"/>
          </g>
          <g id="Group_132" data-name="Group 132" transform="translate(2077.37 0.015)">
            <rect id="Rectangle_132" data-name="Rectangle 132" width="2438.558" height="0.71" transform="translate(0 1724.443) rotate(-45.004)" fill="url(#linear-gradient-25)"/>
          </g>
          <g id="Group_133" data-name="Group 133" transform="translate(2093.288 0.076)">
            <rect id="Rectangle_133" data-name="Rectangle 133" width="2438.558" height="0.709" transform="translate(0 1724.321) rotate(-45)" fill="url(#linear-gradient-25)"/>
          </g>
          <g id="Group_134" data-name="Group 134" transform="translate(2109.329 0.015)">
            <rect id="Rectangle_134" data-name="Rectangle 134" width="2438.558" height="0.71" transform="translate(0 1724.443) rotate(-45.004)" fill="url(#linear-gradient-25)"/>
          </g>
          <g id="Group_135" data-name="Group 135" transform="translate(2125.247 0.076)">
            <rect id="Rectangle_135" data-name="Rectangle 135" width="2438.558" height="0.709" transform="translate(0 1724.321) rotate(-45)" fill="url(#linear-gradient-25)"/>
          </g>
          <g id="Group_136" data-name="Group 136" transform="translate(2141.287 0.015)">
            <rect id="Rectangle_136" data-name="Rectangle 136" width="2438.558" height="0.71" transform="translate(0 1724.443) rotate(-45.004)" fill="url(#linear-gradient-25)"/>
          </g>
          <g id="Group_137" data-name="Group 137" transform="translate(2157.206 0.076)">
            <rect id="Rectangle_137" data-name="Rectangle 137" width="2438.558" height="0.709" transform="translate(0 1724.321) rotate(-45)" fill="url(#linear-gradient-25)"/>
          </g>
          <g id="Group_138" data-name="Group 138" transform="translate(2173.26)">
            <rect id="Rectangle_138" data-name="Rectangle 138" width="2438.558" height="0.71" transform="translate(0 1724.472) rotate(-45.005)" fill="url(#linear-gradient-25)"/>
          </g>
          <g id="Group_139" data-name="Group 139" transform="translate(2189.164 0.076)">
            <rect id="Rectangle_139" data-name="Rectangle 139" width="2438.558" height="0.709" transform="translate(0 1724.321) rotate(-45)" fill="url(#linear-gradient-25)"/>
          </g>
          <g id="Group_140" data-name="Group 140" transform="translate(2205.204 0.015)">
            <rect id="Rectangle_140" data-name="Rectangle 140" width="2438.558" height="0.71" transform="translate(0 1724.443) rotate(-45.004)" fill="url(#linear-gradient-25)"/>
          </g>
          <g id="Group_141" data-name="Group 141" transform="translate(2221.123 0.076)">
            <rect id="Rectangle_141" data-name="Rectangle 141" width="2438.558" height="0.709" transform="translate(0 1724.321) rotate(-45)" fill="url(#linear-gradient-25)"/>
          </g>
          <g id="Group_142" data-name="Group 142" transform="translate(2237.163 0.015)">
            <rect id="Rectangle_142" data-name="Rectangle 142" width="2438.558" height="0.71" transform="translate(0 1724.443) rotate(-45.004)" fill="url(#linear-gradient-25)"/>
          </g>
          <g id="Group_143" data-name="Group 143" transform="translate(2253.082 0.076)">
            <rect id="Rectangle_143" data-name="Rectangle 143" width="2438.558" height="0.709" transform="translate(0 1724.321) rotate(-45)" fill="url(#linear-gradient-25)"/>
          </g>
          <g id="Group_144" data-name="Group 144" transform="translate(2269.122 0.015)">
            <rect id="Rectangle_144" data-name="Rectangle 144" width="2438.558" height="0.71" transform="translate(0 1724.443) rotate(-45.004)" fill="url(#linear-gradient-25)"/>
          </g>
          <g id="Group_145" data-name="Group 145" transform="translate(2285.04 0.076)">
            <rect id="Rectangle_145" data-name="Rectangle 145" width="2438.558" height="0.709" transform="translate(0 1724.321) rotate(-45)" fill="url(#linear-gradient-25)"/>
          </g>
          <g id="Group_146" data-name="Group 146" transform="translate(2301.08 0.015)">
            <rect id="Rectangle_146" data-name="Rectangle 146" width="2438.558" height="0.71" transform="translate(0 1724.443) rotate(-45.004)" fill="url(#linear-gradient-25)"/>
          </g>
          <g id="Group_147" data-name="Group 147" transform="translate(2316.999 0.076)">
            <rect id="Rectangle_147" data-name="Rectangle 147" width="2438.558" height="0.709" transform="translate(0 1724.321) rotate(-45)" fill="url(#linear-gradient-25)"/>
          </g>
          <g id="Group_148" data-name="Group 148" transform="translate(2332.978 0.076)">
            <rect id="Rectangle_148" data-name="Rectangle 148" width="2438.558" height="0.709" transform="translate(0 1724.321) rotate(-45)" fill="url(#linear-gradient-25)"/>
          </g>
          <g id="Group_149" data-name="Group 149" transform="translate(2348.957 0.076)">
            <rect id="Rectangle_149" data-name="Rectangle 149" width="2438.558" height="0.709" transform="translate(0 1724.321) rotate(-45)" fill="url(#linear-gradient-25)"/>
          </g>
          <g id="Group_150" data-name="Group 150" transform="translate(2364.937 0.076)">
            <rect id="Rectangle_150" data-name="Rectangle 150" width="2438.558" height="0.709" transform="translate(0 1724.321) rotate(-45)" fill="url(#linear-gradient-25)"/>
          </g>
          <g id="Group_151" data-name="Group 151" transform="translate(2380.916 0.076)">
            <rect id="Rectangle_151" data-name="Rectangle 151" width="2438.558" height="0.709" transform="translate(0 1724.321) rotate(-45)" fill="url(#linear-gradient-25)"/>
          </g>
          <g id="Group_152" data-name="Group 152" transform="translate(2396.895 0.076)">
            <rect id="Rectangle_152" data-name="Rectangle 152" width="2438.558" height="0.709" transform="translate(0 1724.321) rotate(-45)" fill="url(#linear-gradient-25)"/>
          </g>
          <g id="Group_153" data-name="Group 153" transform="translate(2412.874 0.076)">
            <rect id="Rectangle_153" data-name="Rectangle 153" width="2438.558" height="0.709" transform="translate(0 1724.321) rotate(-45)" fill="url(#linear-gradient-25)"/>
          </g>
          <g id="Group_154" data-name="Group 154" transform="translate(2428.854 0.076)">
            <rect id="Rectangle_154" data-name="Rectangle 154" width="2438.558" height="0.709" transform="translate(0 1724.321) rotate(-45)" fill="url(#linear-gradient-25)"/>
          </g>
          <g id="Group_155" data-name="Group 155" transform="translate(2444.833 0.076)">
            <rect id="Rectangle_155" data-name="Rectangle 155" width="2438.558" height="0.709" transform="translate(0 1724.321) rotate(-45)" fill="url(#linear-gradient-25)"/>
          </g>
          <g id="Group_156" data-name="Group 156" transform="translate(2460.812 0.076)">
            <rect id="Rectangle_156" data-name="Rectangle 156" width="2438.558" height="0.709" transform="translate(0 1724.321) rotate(-45)" fill="url(#linear-gradient-25)"/>
          </g>
          <g id="Group_157" data-name="Group 157" transform="translate(2476.792 0.076)">
            <rect id="Rectangle_157" data-name="Rectangle 157" width="2438.558" height="0.71" transform="translate(0 1724.321) rotate(-45)" fill="url(#linear-gradient-25)"/>
          </g>
          <g id="Group_158" data-name="Group 158" transform="translate(2492.771 0.076)">
            <rect id="Rectangle_158" data-name="Rectangle 158" width="2438.558" height="0.709" transform="translate(0 1724.321) rotate(-45)" fill="url(#linear-gradient-25)"/>
          </g>
          <g id="Group_159" data-name="Group 159" transform="translate(2508.811 0.015)">
            <rect id="Rectangle_159" data-name="Rectangle 159" width="2438.558" height="0.71" transform="translate(0 1724.443) rotate(-45.004)" fill="url(#linear-gradient-25)"/>
          </g>
          <g id="Group_160" data-name="Group 160" transform="translate(2524.729 0.076)">
            <rect id="Rectangle_160" data-name="Rectangle 160" width="2438.558" height="0.709" transform="translate(0 1724.321) rotate(-45)" fill="url(#linear-gradient-25)"/>
          </g>
          <g id="Group_161" data-name="Group 161" transform="translate(2540.77 0.015)">
            <rect id="Rectangle_161" data-name="Rectangle 161" width="2438.558" height="0.71" transform="translate(0 1724.443) rotate(-45.004)" fill="url(#linear-gradient-25)"/>
          </g>
          <g id="Group_162" data-name="Group 162" transform="translate(2556.688 0.076)">
            <rect id="Rectangle_162" data-name="Rectangle 162" width="2438.558" height="0.709" transform="translate(0 1724.321) rotate(-45)" fill="url(#linear-gradient-25)"/>
          </g>
          <g id="Group_163" data-name="Group 163" transform="translate(2572.729 0.015)">
            <rect id="Rectangle_163" data-name="Rectangle 163" width="2438.558" height="0.71" transform="translate(0 1724.443) rotate(-45.004)" fill="url(#linear-gradient-25)"/>
          </g>
          <g id="Group_164" data-name="Group 164" transform="translate(2588.647 0.076)">
            <rect id="Rectangle_164" data-name="Rectangle 164" width="2438.558" height="0.709" transform="translate(0 1724.321) rotate(-45)" fill="url(#linear-gradient-25)"/>
          </g>
          <g id="Group_165" data-name="Group 165" transform="translate(2604.687 0.015)">
            <rect id="Rectangle_165" data-name="Rectangle 165" width="2438.558" height="0.71" transform="translate(0 1724.443) rotate(-45.004)" fill="url(#linear-gradient-25)"/>
          </g>
          <g id="Group_166" data-name="Group 166" transform="translate(2620.605 0.076)">
            <rect id="Rectangle_166" data-name="Rectangle 166" width="2438.558" height="0.709" transform="translate(0 1724.321) rotate(-45)" fill="url(#linear-gradient-25)"/>
          </g>
          <g id="Group_167" data-name="Group 167" transform="translate(2636.646 0.015)">
            <rect id="Rectangle_167" data-name="Rectangle 167" width="2438.558" height="0.71" transform="translate(0 1724.443) rotate(-45.004)" fill="url(#linear-gradient-25)"/>
          </g>
          <g id="Group_168" data-name="Group 168" transform="translate(2652.564 0.076)">
            <rect id="Rectangle_168" data-name="Rectangle 168" width="2438.558" height="0.709" transform="translate(0 1724.321) rotate(-45)" fill="url(#linear-gradient-25)"/>
          </g>
          <g id="Group_169" data-name="Group 169" transform="translate(2668.604 0.015)">
            <rect id="Rectangle_169" data-name="Rectangle 169" width="2438.558" height="0.71" transform="translate(0 1724.443) rotate(-45.004)" fill="url(#linear-gradient-25)"/>
          </g>
          <g id="Group_170" data-name="Group 170" transform="translate(2684.522 0.076)">
            <rect id="Rectangle_170" data-name="Rectangle 170" width="2438.558" height="0.709" transform="translate(0 1724.321) rotate(-45)" fill="url(#linear-gradient-25)"/>
          </g>
          <g id="Group_171" data-name="Group 171" transform="translate(2700.563 0.015)">
            <rect id="Rectangle_171" data-name="Rectangle 171" width="2438.558" height="0.71" transform="translate(0 1724.443) rotate(-45.004)" fill="url(#linear-gradient-25)"/>
          </g>
          <g id="Group_172" data-name="Group 172" transform="translate(2716.481 0.076)">
            <rect id="Rectangle_172" data-name="Rectangle 172" width="2438.558" height="0.709" transform="translate(0 1724.321) rotate(-45)" fill="url(#linear-gradient-25)"/>
          </g>
          <g id="Group_173" data-name="Group 173" transform="translate(2732.521 0.015)">
            <rect id="Rectangle_173" data-name="Rectangle 173" width="2438.558" height="0.71" transform="translate(0 1724.443) rotate(-45.004)" fill="url(#linear-gradient-25)"/>
          </g>
          <g id="Group_174" data-name="Group 174" transform="translate(2748.44 0.076)">
            <rect id="Rectangle_174" data-name="Rectangle 174" width="2438.558" height="0.709" transform="translate(0 1724.321) rotate(-45)" fill="url(#linear-gradient-25)"/>
          </g>
          <g id="Group_175" data-name="Group 175" transform="translate(2764.48 0.015)">
            <rect id="Rectangle_175" data-name="Rectangle 175" width="2438.558" height="0.71" transform="translate(0 1724.443) rotate(-45.004)" fill="url(#linear-gradient-25)"/>
          </g>
          <g id="Group_176" data-name="Group 176" transform="translate(2780.398 0.076)">
            <rect id="Rectangle_176" data-name="Rectangle 176" width="2438.558" height="0.709" transform="translate(0 1724.321) rotate(-45)" fill="url(#linear-gradient-25)"/>
          </g>
          <g id="Group_177" data-name="Group 177" transform="translate(2796.377 0.076)">
            <rect id="Rectangle_177" data-name="Rectangle 177" width="2438.558" height="0.709" transform="translate(0 1724.321) rotate(-45)" fill="url(#linear-gradient-25)"/>
          </g>
          <g id="Group_178" data-name="Group 178" transform="translate(2812.418 0.015)">
            <rect id="Rectangle_178" data-name="Rectangle 178" width="2438.558" height="0.71" transform="translate(0 1724.443) rotate(-45.004)" fill="url(#linear-gradient-25)"/>
          </g>
          <g id="Group_179" data-name="Group 179" transform="translate(2828.336 0.076)">
            <rect id="Rectangle_179" data-name="Rectangle 179" width="2438.558" height="0.709" transform="translate(0 1724.321) rotate(-45)" fill="url(#linear-gradient-25)"/>
          </g>
          <g id="Group_180" data-name="Group 180" transform="translate(2844.315 0.076)">
            <rect id="Rectangle_180" data-name="Rectangle 180" width="2438.558" height="0.709" transform="translate(0 1724.321) rotate(-45)" fill="url(#linear-gradient-25)"/>
          </g>
          <g id="Group_181" data-name="Group 181" transform="translate(2860.295 0.076)">
            <rect id="Rectangle_181" data-name="Rectangle 181" width="2438.558" height="0.709" transform="translate(0 1724.321) rotate(-45)" fill="url(#linear-gradient-25)"/>
          </g>
          <g id="Group_182" data-name="Group 182" transform="translate(2876.335 0.015)">
            <rect id="Rectangle_182" data-name="Rectangle 182" width="2438.558" height="0.71" transform="translate(0 1724.443) rotate(-45.004)" fill="url(#linear-gradient-25)"/>
          </g>
          <g id="Group_183" data-name="Group 183" transform="translate(2892.253 0.076)">
            <rect id="Rectangle_183" data-name="Rectangle 183" width="2438.558" height="0.709" transform="translate(0 1724.321) rotate(-45)" fill="url(#linear-gradient-25)"/>
          </g>
          <g id="Group_184" data-name="Group 184" transform="translate(2908.233 0.076)">
            <rect id="Rectangle_184" data-name="Rectangle 184" width="2438.558" height="0.709" transform="translate(0 1724.321) rotate(-45)" fill="url(#linear-gradient-25)"/>
          </g>
          <g id="Group_185" data-name="Group 185" transform="translate(2924.212 0.076)">
            <rect id="Rectangle_185" data-name="Rectangle 185" width="2438.558" height="0.709" transform="translate(0 1724.321) rotate(-45)" fill="url(#linear-gradient-25)"/>
          </g>
          <g id="Group_186" data-name="Group 186" transform="translate(2940.252 0.015)">
            <rect id="Rectangle_186" data-name="Rectangle 186" width="2438.558" height="0.71" transform="translate(0 1724.443) rotate(-45.004)" fill="url(#linear-gradient-25)"/>
          </g>
          <g id="Group_187" data-name="Group 187" transform="translate(2956.171 0.076)">
            <rect id="Rectangle_187" data-name="Rectangle 187" width="2438.558" height="0.709" transform="translate(0 1724.321) rotate(-45)" fill="url(#linear-gradient-25)"/>
          </g>
          <g id="Group_188" data-name="Group 188" transform="translate(2972.21 0.015)">
            <rect id="Rectangle_188" data-name="Rectangle 188" width="2438.558" height="0.71" transform="translate(0 1724.443) rotate(-45.004)" fill="url(#linear-gradient-25)"/>
          </g>
          <g id="Group_189" data-name="Group 189" transform="translate(2988.129 0.076)">
            <rect id="Rectangle_189" data-name="Rectangle 189" width="2438.558" height="0.709" transform="translate(0 1724.321) rotate(-45)" fill="url(#linear-gradient-25)"/>
          </g>
          <g id="Group_190" data-name="Group 190" transform="translate(3004.169 0.015)">
            <rect id="Rectangle_190" data-name="Rectangle 190" width="2438.558" height="0.71" transform="translate(0 1724.443) rotate(-45.004)" fill="url(#linear-gradient-25)"/>
          </g>
          <g id="Group_191" data-name="Group 191" transform="translate(3020.088 0.076)">
            <rect id="Rectangle_191" data-name="Rectangle 191" width="2438.558" height="0.709" transform="translate(0 1724.321) rotate(-45)" fill="url(#linear-gradient-25)"/>
          </g>
          <g id="Group_192" data-name="Group 192" transform="translate(3036.128 0.015)">
            <rect id="Rectangle_192" data-name="Rectangle 192" width="2438.558" height="0.71" transform="translate(0 1724.443) rotate(-45.004)" fill="url(#linear-gradient-25)"/>
          </g>
          <g id="Group_193" data-name="Group 193" transform="translate(3052.047 0.076)">
            <rect id="Rectangle_193" data-name="Rectangle 193" width="2438.558" height="0.709" transform="translate(0 1724.321) rotate(-45)" fill="url(#linear-gradient-25)"/>
          </g>
          <g id="Group_194" data-name="Group 194" transform="translate(3068.087 0.015)">
            <rect id="Rectangle_194" data-name="Rectangle 194" width="2438.558" height="0.71" transform="translate(0 1724.443) rotate(-45.004)" fill="url(#linear-gradient-25)"/>
          </g>
          <g id="Group_195" data-name="Group 195" transform="translate(3084.005 0.076)">
            <rect id="Rectangle_195" data-name="Rectangle 195" width="2438.558" height="0.709" transform="translate(0 1724.321) rotate(-45)" fill="url(#linear-gradient-25)"/>
          </g>
          <g id="Group_196" data-name="Group 196" transform="translate(3099.985 0.076)">
            <rect id="Rectangle_196" data-name="Rectangle 196" width="2438.558" height="0.709" transform="translate(0 1724.321) rotate(-45)" fill="url(#linear-gradient-25)"/>
          </g>
          <g id="Group_197" data-name="Group 197" transform="translate(3115.964 0.076)">
            <rect id="Rectangle_197" data-name="Rectangle 197" width="2438.558" height="0.709" transform="translate(0 1724.321) rotate(-45)" fill="url(#linear-gradient-25)"/>
          </g>
          <g id="Group_198" data-name="Group 198" transform="translate(3132.004 0.015)">
            <rect id="Rectangle_198" data-name="Rectangle 198" width="2438.558" height="0.71" transform="translate(0 1724.443) rotate(-45.004)" fill="url(#linear-gradient-25)"/>
          </g>
          <g id="Group_199" data-name="Group 199" transform="translate(3147.923 0.076)">
            <rect id="Rectangle_199" data-name="Rectangle 199" width="2438.558" height="0.709" transform="translate(0 1724.321) rotate(-45)" fill="url(#linear-gradient-25)"/>
          </g>
          <g id="Group_200" data-name="Group 200" transform="translate(3163.902 0.076)">
            <rect id="Rectangle_200" data-name="Rectangle 200" width="2438.558" height="0.709" transform="translate(0 1724.321) rotate(-45)" fill="url(#linear-gradient-25)"/>
          </g>
          <g id="Group_201" data-name="Group 201" transform="translate(3179.881 0.076)">
            <rect id="Rectangle_201" data-name="Rectangle 201" width="2438.558" height="0.709" transform="translate(0 1724.321) rotate(-45)" fill="url(#linear-gradient-25)"/>
          </g>
          <g id="Group_202" data-name="Group 202" transform="translate(3195.921 0.015)">
            <rect id="Rectangle_202" data-name="Rectangle 202" width="2438.558" height="0.71" transform="translate(0 1724.443) rotate(-45.004)" fill="url(#linear-gradient-25)"/>
          </g>
          <g id="Group_203" data-name="Group 203" transform="translate(3211.84 0.076)">
            <rect id="Rectangle_203" data-name="Rectangle 203" width="2438.558" height="0.709" transform="translate(0 1724.321) rotate(-45)" fill="url(#linear-gradient-25)"/>
          </g>
        </g>
      </g>
    </g>
  </g>
</svg>
